<svg width="40" height="40" viewBox="0 0 40 40" fill="none" xmlns="http://www.w3.org/2000/svg">
<path d="M10.9414 13.7679C10.9414 12.7937 11.7312 12.0039 12.7054 12.0039H27.2018C28.176 12.0039 28.9658 12.7937 28.9658 13.7679V14.2959C28.9658 15.2701 28.176 16.0599 27.2018 16.0599H12.7054C11.7312 16.0599 10.9414 15.2701 10.9414 14.2959V13.7679Z" fill="#DBDCE6"/>
<path d="M11.0336 19.78C11.0336 18.8058 11.8234 18.016 12.7976 18.016H27.294C28.2682 18.016 29.058 18.8058 29.058 19.78V20.308C29.058 21.2822 28.2682 22.072 27.294 22.072H12.7976C11.8234 22.072 11.0336 21.2822 11.0336 20.308V19.78Z" fill="#DBDCE6"/>
<path d="M10.9414 25.7038C10.9414 24.7296 11.7312 23.9398 12.7054 23.9398H27.2018C28.176 23.9398 28.9658 24.7296 28.9658 25.7038V26.2318C28.9658 27.206 28.176 27.9958 27.2018 27.9958H12.7054C11.7312 27.9958 10.9414 27.206 10.9414 26.2318V25.7038Z" fill="#DBDCE6"/>
</svg>
