<svg width="40" height="40" viewBox="0 0 40 40" fill="none" xmlns="http://www.w3.org/2000/svg">
<path d="M11 12.89C11 11.8462 11.8462 11 12.89 11H16.67C17.7138 11 18.56 11.8462 18.56 12.89V16.67C18.56 17.7138 17.7138 18.56 16.67 18.56H12.89C11.8462 18.56 11 17.7138 11 16.67V12.89Z" fill="#7B7B89"/>
<path d="M11 23.33C11 22.2862 11.8462 21.44 12.89 21.44H16.67C17.7138 21.44 18.56 22.2862 18.56 23.33V27.11C18.56 28.1538 17.7138 29 16.67 29H12.89C11.8462 29 11 28.1538 11 27.11V23.33Z" fill="#7B7B89"/>
<path d="M21.44 12.89C21.44 11.8462 22.2862 11 23.33 11H27.11C28.1538 11 29 11.8462 29 12.89V16.67C29 17.7138 28.1538 18.56 27.11 18.56H23.33C22.2862 18.56 21.44 17.7138 21.44 16.67V12.89Z" fill="#7B7B89"/>
<path d="M21.44 23.33C21.44 22.2862 22.2862 21.44 23.33 21.44H27.11C28.1538 21.44 29 22.2862 29 23.33V27.11C29 28.1538 28.1538 29 27.11 29H23.33C22.2862 29 21.44 28.1538 21.44 27.11V23.33Z" fill="#7B7B89"/>
</svg>
