<svg width="40" height="40" viewBox="0 0 40 40" fill="none" xmlns="http://www.w3.org/2000/svg">
<path d="M11 13.3636C11 12.3894 11.7898 11.5996 12.764 11.5996H13.892C14.8662 11.5996 15.656 12.3894 15.656 13.3636V16.8916C15.656 17.8658 14.8662 18.6556 13.892 18.6556H12.764C11.7898 18.6556 11 17.8658 11 16.8916V13.3636Z" fill="#DBDCE6"/>
<path d="M11 23.1076C11 22.1334 11.7898 21.3436 12.764 21.3436H13.892C14.8662 21.3436 15.656 22.1334 15.656 23.1076V26.6356C15.656 27.6098 14.8662 28.3996 13.892 28.3996H12.764C11.7898 28.3996 11 27.6098 11 26.6356V23.1076Z" fill="#DBDCE6"/>
<path d="M18.344 13.3636C18.344 12.3894 19.1338 11.5996 20.108 11.5996H27.236C28.2102 11.5996 29 12.3894 29 13.3636V16.8916C29 17.8658 28.2102 18.6556 27.236 18.6556H20.108C19.1338 18.6556 18.344 17.8658 18.344 16.8916V13.3636Z" fill="#DBDCE6"/>
<path d="M18.344 23.1076C18.344 22.1334 19.1338 21.3436 20.108 21.3436H27.236C28.2102 21.3436 29 22.1334 29 23.1076V26.6356C29 27.6098 28.2102 28.3996 27.236 28.3996H20.108C19.1338 28.3996 18.344 27.6098 18.344 26.6356V23.1076Z" fill="#DBDCE6"/>
</svg>
