<svg width="40" height="40" viewBox="0 0 40 40" fill="none" xmlns="http://www.w3.org/2000/svg">
<rect width="40" height="40" fill="#A3ADC0"/>
<g id="&#208;&#146;&#208;&#176;&#208;&#185;&#209;&#128;&#209;&#132;&#209;&#128;&#208;&#181;&#208;&#185;&#208;&#188;&#208;&#184;">
<g id="Components Desktop">
<path d="M-1086 -1167C-1086 -1173.63 -1080.63 -1179 -1074 -1179H511C517.627 -1179 523 -1173.63 523 -1167V150C523 156.627 517.627 162 511 162H-1074C-1080.63 162 -1086 156.627 -1086 150V-1167Z" fill="#F8F8F8"/>
<g id="Logo 2">
<g id="icon-park-outline:drone">
<path id="Vector" d="M7.99984 9.99935C10.2779 12.2774 13.8332 15.8327 13.8332 15.8327M13.8332 15.8327H22.1665M13.8332 15.8327V24.166M27.9998 29.9994L22.1665 24.166M22.1665 24.166V15.8327M22.1665 24.166H13.8332M27.9998 9.99935L22.1665 15.8327M7.99984 29.9994L13.8332 24.166M27.9998 15.8327C29.1536 15.8327 30.2814 15.4906 31.2407 14.8496C32.2 14.2086 32.9476 13.2976 33.3891 12.2317C33.8306 11.1658 33.9462 9.99288 33.7211 8.86132C33.496 7.72977 32.9404 6.69037 32.1246 5.87456C31.3088 5.05876 30.2694 4.50318 29.1379 4.2781C28.0063 4.05302 26.8334 4.16854 25.7675 4.61005C24.7016 5.05157 23.7906 5.79924 23.1496 6.75853C22.5086 7.71781 22.1665 8.84563 22.1665 9.99935M27.9998 24.166C29.1536 24.166 30.2814 24.5081 31.2407 25.1491C32.2 25.7901 32.9476 26.7011 33.3891 27.767C33.8306 28.8329 33.9462 30.0058 33.7211 31.1374C33.496 32.2689 32.9404 33.3083 32.1246 34.1241C31.3088 34.9399 30.2694 35.4955 29.1379 35.7206C28.0063 35.9457 26.8334 35.8302 25.7675 35.3886C24.7016 34.9471 23.7906 34.1995 23.1496 33.2402C22.5086 32.2809 22.1665 31.1531 22.1665 29.9994M7.99984 24.166C6.84612 24.166 5.7183 24.5081 4.75901 25.1491C3.79973 25.7901 3.05205 26.7011 2.61054 27.767C2.16903 28.8329 2.05351 30.0058 2.27859 31.1374C2.50367 32.2689 3.05924 33.3083 3.87505 34.1241C4.69086 34.9399 5.73026 35.4955 6.86181 35.7206C7.99337 35.9457 9.16626 35.8302 10.2322 35.3886C11.2981 34.9471 12.2091 34.1995 12.8501 33.2402C13.4911 32.2809 13.8332 31.1531 13.8332 29.9994M7.99984 15.8327C6.84612 15.8327 5.7183 15.4906 4.75901 14.8496C3.79973 14.2086 3.05205 13.2976 2.61054 12.2317C2.16903 11.1658 2.05351 9.99288 2.27859 8.86132C2.50367 7.72977 3.05924 6.69037 3.87505 5.87456C4.69086 5.05876 5.73026 4.50318 6.86181 4.2781C7.99337 4.05302 9.16626 4.16854 10.2322 4.61005C11.2981 5.05157 12.2091 5.79924 12.8501 6.75853C13.4911 7.71781 13.8332 8.84563 13.8332 9.99935" stroke="#1D1F36" stroke-width="2.5" stroke-linecap="round" stroke-linejoin="round"/>
</g>
</g>
</g>
<path d="M-11986 -6809H11990V-6829H-11986V-6809ZM11982 -6817V2716H12002V-6817H11982ZM11990 2708H-11986V2728H11990V2708ZM-11978 2716V-6817H-11998V2716H-11978ZM-11986 2708C-11981.6 2708 -11978 2711.58 -11978 2716H-11998C-11998 2722.62 -11992.6 2728 -11986 2728V2708ZM11982 2716C11982 2711.58 11985.6 2708 11990 2708V2728C11996.6 2728 12002 2722.63 12002 2716H11982ZM11990 -6809C11985.6 -6809 11982 -6812.58 11982 -6817H12002C12002 -6823.62 11996.6 -6829 11990 -6829V-6809ZM-11986 -6829C-11992.6 -6829 -11998 -6823.63 -11998 -6817H-11978C-11978 -6812.58 -11981.6 -6809 -11986 -6809V-6829Z" fill="black"/>
</g>
</svg>
