<svg aria-hidden="true" style="position: absolute; width: 0; height: 0; overflow: hidden;" version="1.1" xmlns="http://www.w3.org/2000/svg" xmlns:xlink="http://www.w3.org/1999/xlink">
<defs>
<symbol id="icon-logo" viewBox="0 0 32 32">
<path stroke-linejoin="round" stroke-linecap="round" stroke-miterlimit="4" stroke-width="2.2222" d="M7.111 6.836c2.025 2.025 5.185 5.185 5.185 5.185M12.296 12.021h7.407M12.296 12.021v7.407M24.889 24.614l-5.185-5.185M19.704 19.429v-7.407M19.704 19.429h-7.407M24.889 6.836l-5.185 5.185M7.111 24.614l5.185-5.185M24.889 12.021c1.026 0 2.028-0.304 2.881-0.874s1.517-1.38 1.91-2.327c0.392-0.947 0.495-1.99 0.295-2.996s-0.694-1.93-1.419-2.655c-0.725-0.725-1.649-1.219-2.655-1.419s-2.048-0.097-2.996 0.295-1.757 1.057-2.327 1.91c-0.57 0.853-0.874 1.855-0.874 2.881M24.889 19.429c1.026 0 2.028 0.304 2.881 0.874s1.517 1.38 1.91 2.327c0.392 0.947 0.495 1.99 0.295 2.996s-0.694 1.93-1.419 2.655c-0.725 0.725-1.649 1.219-2.655 1.419s-2.048 0.097-2.996-0.295c-0.947-0.393-1.757-1.057-2.327-1.91s-0.874-1.855-0.874-2.881M7.111 19.429c-1.026 0-2.028 0.304-2.881 0.874s-1.517 1.38-1.91 2.327c-0.392 0.947-0.495 1.99-0.295 2.996s0.694 1.93 1.419 2.655c0.725 0.725 1.649 1.219 2.655 1.419s2.048 0.097 2.996-0.295c0.947-0.393 1.757-1.057 2.327-1.91s0.874-1.855 0.874-2.881M7.111 12.021c-1.026 0-2.028-0.304-2.881-0.874s-1.517-1.38-1.91-2.327c-0.392-0.947-0.495-1.99-0.295-2.996s0.694-1.93 1.419-2.655c0.725-0.725 1.649-1.219 2.655-1.419s2.048-0.097 2.996 0.295c0.947 0.392 1.757 1.057 2.327 1.91s0.874 1.855 0.874 2.881"></path>
</symbol>

<symbol id="icon-search"  viewBox="0 0 32 32">
<path stroke-linejoin="round" stroke-linecap="round" stroke-miterlimit="4" stroke-width="2" d="M28 28l-6.929-6.929M21.071 21.071c1.81-1.81 2.929-4.31 2.929-7.071 0-5.523-4.477-10-10-10s-10 4.477-10 10c0 5.523 4.477 10 10 10 2.761 0 5.261-1.119 7.071-2.929z"></path>
</symbol>

<symbol id="icon-user" viewBox="0 0 32 32">
<path stroke-linejoin="round" stroke-linecap="round" stroke-miterlimit="4" stroke-width="1.92" d="M20.801 7.924c0 2.651-2.149 4.8-4.8 4.8s-4.8-2.149-4.8-4.8 2.149-4.8 4.8-4.8c2.651 0 4.8 2.149 4.8 4.8z"></path>
<path stroke-linejoin="round" stroke-linecap="round" stroke-miterlimit="4" stroke-width="1.92" d="M6.402 24.715c0.090-5.224 4.353-8.151 9.599-8.151s9.509 2.928 9.599 8.152c-2.922 1.341-6.173 2.088-9.598 2.088s-6.677-0.748-9.599-2.089z"></path>
</symbol>

<symbol id="icon-heart" viewBox="0 0 32 32">
<path stroke-linejoin="round" stroke-linecap="round" stroke-miterlimit="4" stroke-width="1.92" d="M27.52 10.804c0-3.181-2.686-5.76-6-5.76-2.478 0-4.604 1.442-5.52 3.499-0.916-2.057-3.042-3.499-5.52-3.499-3.314 0-6 2.579-6 5.76 0 9.242 11.52 15.36 11.52 15.36s11.52-6.118 11.52-15.36z"></path>
</symbol>

<symbol id="icon-cart" viewBox="0 0 32 32">
<path stroke-linejoin="round" stroke-linecap="round" stroke-miterlimit="4" stroke-width="1.92" d="M3.52 4.084h1.774c0.652 0 1.223 0.439 1.391 1.069l0.49 1.839M10.24 18.484c-2.121 0-3.84 1.719-3.84 3.84h20.16M10.24 18.484h14.359c1.435-2.945 2.687-5.995 3.742-9.136-6.095-1.557-12.482-2.384-19.061-2.384-0.704 0-1.405 0.009-2.104 0.028M10.24 18.484l-3.064-11.492M8.32 26.164c0 0.53-0.43 0.96-0.96 0.96s-0.96-0.43-0.96-0.96c0-0.53 0.43-0.96 0.96-0.96s0.96 0.43 0.96 0.96zM24.64 26.164c0 0.53-0.43 0.96-0.96 0.96s-0.96-0.43-0.96-0.96c0-0.53 0.43-0.96 0.96-0.96s0.96 0.43 0.96 0.96z"></path>
</symbol>

<symbol id="icon-home" viewBox="0 0 32 32">
<path stroke-linejoin="miter" stroke-linecap="round" stroke-miterlimit="4" stroke-width="1.9478" d="M2.087 16.463l3.054-3.097M29.913 16.197l-2.969-3.023M26.944 13.174l-10.599-10.379c-0.219-0.215-0.57-0.211-0.786 0.007l-10.418 10.564M26.944 13.174v14.999c0 0.307-0.249 0.557-0.557 0.557h-20.69c-0.307 0-0.557-0.249-0.557-0.557v-14.808"></path>
</symbol>

<symbol id="icon-arrow-right" viewBox="0 0 32 32">
<path stroke-linejoin="round" stroke-linecap="round" stroke-miterlimit="4" stroke-width="1.5" d="M6 16h20M26 16l-9-9M26 16l-9 9"></path>
</symbol>

<symbol id="icon-chevron-down" viewBox="0 0 32 32">
<path stroke-linejoin="round" stroke-linecap="round" stroke-miterlimit="4" stroke-width="2" d="M26 11l-10 10-10-10"></path>
</symbol>

<symbol id="icon-chevron-left" viewBox="0 0 32 32">
<path stroke="none" d="M5.333 0.185h21.333c2.678 0 4.849 2.171 4.849 4.848v21.333c0 2.678-2.171 4.849-4.849 4.849h-21.333c-2.678 0-4.848-2.171-4.848-4.849v-21.333c0-2.678 2.171-4.848 4.848-4.848z"></path>
<path fill="none" stroke-linejoin="round" stroke-linecap="round" stroke-miterlimit="4" stroke-width="1.9394" d="M20.849 25.397l-9.697-9.697 9.697-9.697"></path>
</symbol>

<symbol id="icon-chevron-right" viewBox="0 0 32 32">
<path stroke="none" d="M5.333 0.185h21.333c2.678 0 4.849 2.171 4.849 4.848v21.333c0 2.678-2.171 4.849-4.849 4.849h-21.333c-2.678 0-4.848-2.171-4.848-4.849v-21.333c0-2.678 2.171-4.848 4.848-4.848z"></path>
<path fill="none" stroke-linejoin="round" stroke-linecap="round" stroke-miterlimit="4" stroke-width="1.9394" d="M11.152 6.003l9.697 9.697-9.697 9.697"></path>
</symbol>

<symbol id="icon-burger" viewBox="0 0 32 32">
<path stroke-linejoin="round" stroke-linecap="round" stroke-miterlimit="4" stroke-width="2" d="M5 9h22M5 16h22M5 23h22"></path>
</symbol>

<symbol id="icon-check" viewBox="0 0 32 32">
<path fill="none" stroke="#2eb052" style="stroke: var(--color1, #2eb052)" stroke-linejoin="round" stroke-linecap="round" stroke-miterlimit="4" stroke-width="2.6667" d="M6 17l8 8 12-18"></path>
</symbol>

<symbol id="icon-cross" viewBox="0 0 32 32">
<path stroke-linejoin="round" stroke-linecap="round" stroke-miterlimit="4" stroke-width="1.5" d="M8 24l16-16M8 8l16 16"></path>
</symbol>

<symbol id="icon-filter" viewBox="0 0 32 32">
<path d="M10.667 23.556c0-0.354 0.14-0.693 0.391-0.943s0.589-0.391 0.943-0.391h8c0.354 0 0.693 0.14 0.943 0.391s0.391 0.589 0.391 0.943-0.14 0.693-0.391 0.943c-0.25 0.25-0.589 0.391-0.943 0.391h-8c-0.354 0-0.693-0.14-0.943-0.391s-0.391-0.589-0.391-0.943zM5.333 15.556c0-0.354 0.14-0.693 0.391-0.943s0.589-0.391 0.943-0.391h18.667c0.354 0 0.693 0.14 0.943 0.391s0.391 0.589 0.391 0.943-0.14 0.693-0.391 0.943c-0.25 0.25-0.589 0.391-0.943 0.391h-18.667c-0.354 0-0.693-0.14-0.943-0.391s-0.391-0.589-0.391-0.943zM0 7.556c0-0.354 0.14-0.693 0.391-0.943s0.589-0.391 0.943-0.391h29.333c0.354 0 0.693 0.14 0.943 0.391s0.391 0.589 0.391 0.943-0.14 0.693-0.391 0.943c-0.25 0.25-0.589 0.391-0.943 0.391h-29.333c-0.354 0-0.693-0.14-0.943-0.391s-0.391-0.589-0.391-0.943z"></path>
</symbol>

<symbol id="icon-filter-check" viewBox="0 0 32 32">
<path fill="none" stroke="#fafcff" style="stroke: var(--color2, #fafcff)" stroke-linejoin="round" stroke-linecap="round" stroke-miterlimit="4" stroke-width="4.1143" d="M4.231 14.161l11.287 12.048c0.212 0.226 0.583 0.18 0.733-0.091l11.518-20.784"></path>
</symbol>

<symbol id="icon-filter-circle" viewBox="0 0 32 32">
<path fill="#2269d2" style="fill: var(--color4, #2269d2)" d="M32 16c0 8.837-7.163 16-16 16s-16-7.163-16-16c0-8.837 7.163-16 16-16s16 7.163 16 16z"></path>
</symbol>

<symbol id="icon-grid" viewBox="0 0 32 32">
<path d="M0 3.36c0-1.856 1.504-3.36 3.36-3.36h6.72c1.856 0 3.36 1.504 3.36 3.36v6.72c0 1.856-1.504 3.36-3.36 3.36h-6.72c-1.856 0-3.36-1.504-3.36-3.36v-6.72z"></path>
<path d="M0 21.92c0-1.856 1.504-3.36 3.36-3.36h6.72c1.856 0 3.36 1.504 3.36 3.36v6.72c0 1.856-1.504 3.36-3.36 3.36h-6.72c-1.856 0-3.36-1.504-3.36-3.36v-6.72z"></path>
<path d="M18.56 3.36c0-1.856 1.504-3.36 3.36-3.36h6.72c1.856 0 3.36 1.504 3.36 3.36v6.72c0 1.856-1.504 3.36-3.36 3.36h-6.72c-1.856 0-3.36-1.504-3.36-3.36v-6.72z"></path>
<path d="M18.56 21.92c0-1.856 1.504-3.36 3.36-3.36h6.72c1.856 0 3.36 1.504 3.36 3.36v6.72c0 1.856-1.504 3.36-3.36 3.36h-6.72c-1.856 0-3.36-1.504-3.36-3.36v-6.72z"></path>
</symbol>

<symbol id="icon-list" viewBox="0 0 32 32">
<path d="M0 4.202c0-1.732 1.404-3.136 3.136-3.136h2.005c1.732 0 3.136 1.404 3.136 3.136v6.272c0 1.732-1.404 3.136-3.136 3.136h-2.005c-1.732 0-3.136-1.404-3.136-3.136v-6.272z"></path>
<path d="M0 21.525c0-1.732 1.404-3.136 3.136-3.136h2.005c1.732 0 3.136 1.404 3.136 3.136v6.272c0 1.732-1.404 3.136-3.136 3.136h-2.005c-1.732 0-3.136-1.404-3.136-3.136v-6.272z"></path>
<path d="M13.056 4.202c0-1.732 1.404-3.136 3.136-3.136h12.672c1.732 0 3.136 1.404 3.136 3.136v6.272c0 1.732-1.404 3.136-3.136 3.136h-12.672c-1.732 0-3.136-1.404-3.136-3.136v-6.272z"></path>
<path d="M13.056 21.525c0-1.732 1.404-3.136 3.136-3.136h12.672c1.732 0 3.136 1.404 3.136 3.136v6.272c0 1.732-1.404 3.136-3.136 3.136h-12.672c-1.732 0-3.136-1.404-3.136-3.136v-6.272z"></path>
</symbol>

<symbol id="icon-star" viewBox="0 0 32 32">
<path fill="#ffd646" style="fill: var(--color11, #ffd646)" d="M16 23.026l5.533 3.347c1.013 0.613 2.253-0.293 1.987-1.44l-1.467-6.293 4.893-4.24c0.893-0.773 0.413-2.24-0.76-2.333l-6.44-0.547-2.52-5.947c-0.453-1.080-2-1.080-2.453 0l-2.52 5.933-6.44 0.547c-1.173 0.093-1.653 1.56-0.76 2.333l4.893 4.24-1.467 6.293c-0.267 1.147 0.973 2.053 1.987 1.44l5.533-3.333z"></path>
</symbol>

<symbol id="icon-statistics" viewBox="0 0 32 32">
<path fill="none" stroke="#7b7b89" style="stroke: var(--color9, #7b7b89)" stroke-linejoin="round" stroke-linecap="round" stroke-miterlimit="4" stroke-width="2" d="M9 27v-22M16 27v-11M23 27v-22"></path>
</symbol>

<symbol id="icon-instagram" viewBox="0 0 32 32">
<path d="M23.169 0h-14.338c-4.869 0-8.831 3.962-8.831 8.831v14.338c0 4.869 3.961 8.831 8.831 8.831h14.338c4.87 0 8.831-3.962 8.831-8.831v-14.338c0-4.869-3.961-8.831-8.831-8.831zM29.161 23.169c0 3.304-2.688 5.992-5.992 5.992h-14.338c-3.304 0-5.991-2.688-5.991-5.992v-14.338c0-3.304 2.688-5.992 5.991-5.992h14.338c3.304 0 5.992 2.688 5.992 5.992v14.338z"></path>
<path d="M16 7.755c-4.547 0-8.246 3.699-8.246 8.246s3.699 8.245 8.246 8.245 8.246-3.699 8.246-8.245c0-4.547-3.699-8.246-8.246-8.246zM16 21.406c-2.981 0-5.406-2.425-5.406-5.406s2.425-5.406 5.406-5.406 5.406 2.425 5.406 5.406c0 2.981-2.425 5.406-5.406 5.406z"></path>
<path d="M24.591 5.347c-0.547 0-1.084 0.221-1.471 0.609-0.388 0.386-0.611 0.924-0.611 1.473 0 0.547 0.223 1.085 0.611 1.473 0.386 0.386 0.924 0.609 1.471 0.609 0.549 0 1.085-0.223 1.473-0.609 0.388-0.388 0.609-0.926 0.609-1.473 0-0.549-0.221-1.086-0.609-1.473-0.386-0.388-0.924-0.609-1.473-0.609z"></path>
</symbol>

<symbol id="icon-x-logo" viewBox="0 0 32 32">
<path d="M25.173 1.547h4.907l-10.773 12.267 12.587 16.64h-9.877l-7.733-10.112-8.853 10.112h-4.907l11.413-13.12-12.053-15.787h10.123l6.987 9.237zM23.456 27.573h2.72l-17.6-23.253h-2.923z"></path>
</symbol>

<symbol id="icon-googlepay" viewBox="0 0 32 32">
<path fill="#4285f4" style="fill: var(--color5, #4285f4)" d="M21.185 16.121c0-0.36-0.040-0.72-0.080-1.080h-5v2.040h2.84c-0.12 0.64-0.48 1.24-1.040 1.6v1.32h1.72c1-0.92 1.56-2.28 1.56-3.88z"></path>
<path fill="#34a853" style="fill: var(--color6, #34a853)" d="M16.105 21.281c1.44 0 2.64-0.48 3.52-1.28l-1.72-1.32c-0.48 0.32-1.080 0.52-1.8 0.52-1.36 0-2.56-0.92-2.96-2.2h-1.76v1.36c0.92 1.8 2.72 2.92 4.72 2.92z"></path>
<path fill="#fbbc04" style="fill: var(--color7, #fbbc04)" d="M13.145 17.001c-0.24-0.64-0.24-1.36 0-2.040v-1.36h-1.76c-0.76 1.48-0.76 3.24 0 4.76l1.76-1.36z"></path>
<path fill="#ea4335" style="fill: var(--color8, #ea4335)" d="M16.105 12.801c0.76 0 1.48 0.28 2.040 0.8v0l1.52-1.52c-0.96-0.88-2.24-1.4-3.52-1.36-2 0-3.84 1.12-4.72 2.92l1.76 1.36c0.36-1.28 1.56-2.2 2.92-2.2z"></path>
</symbol>

<symbol id="icon-facebook" viewBox="0 0 32 32">
<path d="M16 0c-8.836 0-16 7.164-16 16 0 8.022 5.909 14.645 13.609 15.802v-11.561h-3.959v-4.206h3.959v-2.799c0-4.633 2.257-6.668 6.108-6.668 1.844 0 2.82 0.137 3.281 0.199v3.671h-2.627c-1.635 0-2.206 1.55-2.206 3.297v2.299h4.791l-0.65 4.206h-4.141v11.596c7.809-1.060 13.834-7.737 13.834-15.836 0-8.836-7.164-16-16-16z"></path>
</symbol>


<symbol id="icon-visa" viewBox="0 0 106 32"  fill="inherit">
<path d="M54.614 10.192c-0.060 4.44 4.234 6.917 7.468 8.391 3.323 1.511 4.439 2.481 4.426 3.832-0.025 2.068-2.651 2.981-5.108 3.017-4.287 0.062-6.78-1.082-8.761-1.947l-1.545 6.754c1.988 0.856 5.67 1.603 9.488 1.636 8.962 0 14.824-4.135 14.856-10.545 0.035-8.136-12.040-8.586-11.957-12.222 0.028-1.103 1.154-2.279 3.621-2.579 1.221-0.151 4.591-0.267 8.413 1.378l1.5-6.535c-2.055-0.699-4.696-1.369-7.985-1.369-8.435 0-14.367 4.191-14.415 10.189zM91.426 0.566c-1.636 0-3.015 0.892-3.631 2.261l-12.801 28.568h8.955l1.782-4.603h10.943l1.034 4.603h7.893l-6.887-30.829h-7.287zM92.678 8.894l2.584 11.577h-7.078l4.493-11.577zM43.756 0.566l-7.059 30.828h8.533l7.055-30.829-8.53 0.001zM31.133 0.566l-8.882 20.983-3.593-17.842c-0.422-1.992-2.086-3.142-3.935-3.142h-14.519l-0.203 0.895c2.981 0.605 6.367 1.58 8.419 2.623 1.256 0.637 1.614 1.194 2.026 2.709l6.805 24.602h9.018l13.825-30.829-8.961 0z"></path>
</symbol>

<symbol id="icon-mastercard" viewBox="0 0 40 32">
<path fill="#1d1f36" style="fill: var(--color1, #1d1f36)" d="M7.78 31.050v-2.012c0-0.772-0.461-1.274-1.251-1.274-0.395 0-0.823 0.134-1.12 0.57-0.23-0.369-0.56-0.57-1.054-0.57-0.329 0-0.659 0.1-0.922 0.469v-0.402h-0.692v3.219h0.692v-1.777c0-0.57 0.296-0.838 0.758-0.838s0.692 0.302 0.692 0.838v1.777h0.691v-1.777c0-0.57 0.329-0.838 0.757-0.838 0.461 0 0.692 0.302 0.692 0.838v1.777h0.758zM18.021 27.83h-1.119v-0.972h-0.692v0.972h-0.626v0.637h0.626v1.476c0 0.738 0.296 1.174 1.087 1.174 0.296 0 0.626-0.1 0.856-0.235l-0.198-0.604c-0.198 0.134-0.428 0.168-0.593 0.168-0.329 0-0.461-0.201-0.461-0.537v-1.442h1.119v-0.637zM23.882 27.763c-0.395 0-0.658 0.201-0.823 0.47v-0.402h-0.692v3.219h0.692v-1.811c0-0.536 0.23-0.838 0.659-0.838 0.132 0 0.296 0.034 0.428 0.067l0.198-0.671c-0.132-0.034-0.329-0.034-0.461-0.034zM15.025 28.099c-0.329-0.235-0.79-0.335-1.284-0.335-0.79 0-1.317 0.402-1.317 1.040 0 0.537 0.395 0.838 1.087 0.939l0.329 0.034c0.362 0.067 0.56 0.168 0.56 0.335 0 0.235-0.263 0.402-0.725 0.402s-0.823-0.168-1.054-0.335l-0.329 0.536c0.362 0.268 0.856 0.402 1.35 0.402 0.922 0 1.449-0.436 1.449-1.040 0-0.57-0.428-0.872-1.087-0.972l-0.329-0.034c-0.296-0.034-0.527-0.1-0.527-0.302 0-0.235 0.23-0.369 0.593-0.369 0.395 0 0.79 0.168 0.988 0.268l0.296-0.57zM33.399 27.764c-0.395 0-0.659 0.201-0.823 0.469v-0.402h-0.692v3.219h0.692v-1.811c0-0.536 0.231-0.838 0.659-0.838 0.132 0 0.296 0.034 0.428 0.067l0.198-0.671c-0.132-0.034-0.329-0.034-0.461-0.034zM24.574 29.44c0 0.972 0.659 1.677 1.679 1.677 0.461 0 0.79-0.1 1.12-0.369l-0.329-0.57c-0.263 0.201-0.527 0.302-0.823 0.302-0.56 0-0.955-0.402-0.955-1.040 0-0.604 0.395-1.006 0.955-1.040 0.296 0 0.56 0.1 0.823 0.302l0.329-0.57c-0.329-0.268-0.659-0.369-1.12-0.369-1.021 0-1.679 0.704-1.679 1.677zM30.962 29.44v-1.61h-0.692v0.402c-0.23-0.302-0.56-0.469-0.988-0.469-0.889 0-1.58 0.704-1.58 1.677s0.692 1.677 1.58 1.677c0.461 0 0.79-0.168 0.988-0.469v0.402h0.692v-1.61zM28.427 29.44c0-0.57 0.362-1.040 0.955-1.040 0.56 0 0.955 0.436 0.955 1.040 0 0.57-0.395 1.040-0.955 1.040-0.593-0.034-0.955-0.469-0.955-1.040zM20.162 27.764c-0.922 0-1.581 0.671-1.581 1.677s0.659 1.677 1.614 1.677c0.461 0 0.922-0.134 1.284-0.436l-0.329-0.503c-0.263 0.201-0.593 0.335-0.922 0.335-0.428 0-0.856-0.201-0.955-0.772h2.338v-0.268c0.033-1.040-0.56-1.71-1.449-1.71zM20.161 28.367c0.428 0 0.724 0.268 0.79 0.772h-1.646c0.066-0.436 0.362-0.772 0.856-0.772zM37.317 29.44v-2.884h-0.691v1.677c-0.231-0.302-0.56-0.469-0.988-0.469-0.889 0-1.58 0.704-1.58 1.677s0.692 1.677 1.58 1.677c0.461 0 0.79-0.168 0.988-0.469v0.402h0.691v-1.61zM34.782 29.44c0-0.57 0.362-1.040 0.955-1.040 0.56 0 0.955 0.436 0.955 1.040 0 0.57-0.395 1.040-0.955 1.040-0.593-0.034-0.955-0.469-0.955-1.040zM11.666 29.44v-1.61h-0.691v0.402c-0.231-0.302-0.56-0.469-0.988-0.469-0.889 0-1.581 0.704-1.581 1.677s0.691 1.677 1.581 1.677c0.461 0 0.79-0.168 0.988-0.469v0.402h0.691v-1.61zM9.097 29.44c0-0.57 0.362-1.040 0.955-1.040 0.56 0 0.955 0.436 0.955 1.040 0 0.57-0.395 1.040-0.955 1.040-0.593-0.034-0.955-0.469-0.955-1.040z"></path>
<path fill="#ff5f00" style="fill: var(--color2, #ff5f00)" d="M14.794 3.381h10.372v18.981h-10.373v-18.981z"></path>
<path fill="#eb001b" style="fill: var(--color3, #eb001b)" d="M15.453 12.873c0-3.857 1.778-7.277 4.511-9.491-2.008-1.61-4.544-2.582-7.31-2.582-6.553 0-11.854 5.399-11.854 12.073s5.301 12.073 11.854 12.073c2.766 0 5.302-0.972 7.31-2.582-2.733-2.18-4.511-5.634-4.511-9.49z"></path>
<path fill="#f79e1b" style="fill: var(--color4, #f79e1b)" d="M39.161 12.873c0 6.673-5.301 12.073-11.854 12.073-2.766 0-5.301-0.972-7.31-2.582 2.766-2.213 4.511-5.634 4.511-9.49s-1.778-7.277-4.511-9.491c2.009-1.61 4.544-2.582 7.31-2.582 6.553 0 11.854 5.433 11.854 12.073z"></path>
</symbol>

<symbol id="icon-paypal" viewBox="0 0 28 32">
<path fill="#27346a" style="fill: var(--color5, #27346a)" d="M23.289 3.054c-1.451-1.613-4.075-2.304-7.432-2.304h-9.742c-0.332 0-0.653 0.116-0.906 0.326s-0.42 0.501-0.472 0.821l-4.056 25.078c-0.081 0.495 0.312 0.942 0.826 0.942h6.014l1.51-9.339-0.047 0.293c0.108-0.66 0.687-1.147 1.373-1.147h2.858c5.614 0 10.011-2.223 11.295-8.654 0.038-0.19 0.071-0.375 0.1-0.556-0.162-0.084-0.162-0.084 0 0 0.382-2.377-0.003-3.995-1.321-5.46z"></path>
<path fill="#27346a" style="fill: var(--color5, #27346a)" d="M11.333 7.658c0.164-0.076 0.344-0.116 0.526-0.116h7.637c0.904 0 1.748 0.057 2.519 0.178 0.216 0.034 0.43 0.074 0.643 0.12 0.302 0.065 0.601 0.145 0.895 0.238 0.379 0.123 0.732 0.267 1.056 0.435 0.382-2.378-0.003-3.995-1.322-5.46-1.452-1.613-4.075-2.304-7.432-2.304h-9.742c-0.686 0-1.269 0.487-1.377 1.147l-4.056 25.077c-0.081 0.495 0.312 0.943 0.826 0.943h6.015l3.134-19.372c0.031-0.19 0.109-0.371 0.227-0.525s0.273-0.279 0.451-0.362z"></path>
<path fill="#2790c3" style="fill: var(--color6, #2790c3)" d="M24.511 9.069c-1.284 6.43-5.68 8.654-11.295 8.654h-2.859c-0.686 0-1.265 0.487-1.372 1.147l-1.879 11.612c-0.070 0.433 0.273 0.825 0.722 0.825h5.070c0.29-0 0.571-0.101 0.792-0.285s0.367-0.439 0.412-0.718l0.049-0.252 0.956-5.903 0.062-0.326c0.045-0.28 0.192-0.534 0.412-0.718s0.502-0.285 0.792-0.285h0.759c4.911 0 8.757-1.945 9.88-7.57 0.469-2.351 0.226-4.313-1.014-5.692-0.376-0.418-0.844-0.762-1.388-1.044-0.029 0.182-0.061 0.366-0.1 0.556z"></path>
<path fill="#1f264f" style="fill: var(--color7, #1f264f)" d="M23.266 7.991c-0.2-0.057-0.402-0.107-0.606-0.151-0.213-0.046-0.428-0.085-0.643-0.119-0.772-0.122-1.615-0.179-2.52-0.179h-7.636c-0.182-0-0.362 0.040-0.526 0.117-0.178 0.083-0.334 0.207-0.452 0.362s-0.196 0.335-0.226 0.526l-1.623 10.032-0.047 0.293c0.107-0.66 0.686-1.147 1.372-1.147h2.859c5.614 0 10.010-2.223 11.295-8.654 0.038-0.19 0.070-0.374 0.1-0.556-0.325-0.167-0.677-0.312-1.056-0.434-0.096-0.031-0.192-0.060-0.289-0.088z"></path>
</symbol>

<symbol id="icon-privat" viewBox="0 0 32 32">
<path fill="#000" style="fill: var(--color1, #000)" d="M16 0.39v0c8.62 0 15.61 6.99 15.61 15.61v0c0 8.62-6.99 15.61-15.61 15.61v0c-8.62 0-15.61-6.99-15.61-15.61v0c0-8.62 6.99-15.61 15.61-15.61z"></path>
<path fill="#8dc641" style="fill: var(--color2, #8dc641)" d="M16 0.29c-8.67 0-15.71 7.030-15.71 15.71s7.030 15.71 15.71 15.71 15.71-7.030 15.71-15.71-7.030-15.71-15.71-15.71zM16 29.98c-7.72 0-13.98-6.26-13.98-13.98s6.26-13.98 13.98-13.98 13.98 6.26 13.98 13.98-6.26 13.98-13.98 13.98z"></path>
<path fill="#fff" style="fill: var(--color3, #fff)" d="M21.49 12.43l-3.5 5.19h3.5v-5.19zM22.81 10.33v7.3h1.54v1.32h-1.54v2.73h-1.33v-2.73h-4.95v-1.42l4.99-7.19 1.29-0.010zM15.070 20.35v1.32h-7.42v-0.040c0.070-1.24 0.39-2.15 1.010-2.9 0.5-0.62 1.11-1.080 2.36-1.86 0 0 0.44-0.28 0.57-0.36 0.67-0.43 1.1-0.77 1.45-1.16 0.43-0.5 0.65-1.040 0.65-1.68 0-1.24-0.88-2.090-2.14-2.090-1.47 0-2.22 1.12-2.26 2.79v0.030h-1.32v-0.030l-0.010-0.3c0-2.24 1.46-3.74 3.66-3.74 2.15 0 3.55 1.3 3.55 3.31 0 1.030-0.37 1.86-1.080 2.59-0.53 0.56-1.080 0.93-2.31 1.68-0.020 0.010-0.030 0.020-0.050 0.030-0.060 0.030-0.33 0.19-0.4 0.24-0.59 0.35-0.95 0.6-1.27 0.9-0.39 0.37-0.65 0.78-0.77 1.26h5.78v0.010z"></path>
</symbol>

<symbol id="icon-liqpay" viewBox="0 0 154 32">
<path fill="#000" style="fill: var(--color1, #000)" d="M129.535 24.726l-0.353-0.303c-0.858-0.732-1.009-2.069-0.227-2.927l9.184-10.496c0.732-0.858 2.069-1.009 2.927-0.227l0.353 0.303c0.858 0.732 1.009 2.069 0.227 2.927l-9.184 10.496c-0.732 0.858-2.019 0.959-2.927 0.227z"></path>
<path fill="#000" style="fill: var(--color1, #000)" opacity="0.4" d="M136.903 12.817l-0.177-0.202-1.413 1.615 0.151 0.177c2.422 2.422 1.388 4.87 0.833 5.727l0.202-0.227c0.328-0.378 0.833-0.959 1.363-1.59 0.555-0.959 1.337-3.23-0.959-5.5z"></path>
<path fill="#000" style="fill: var(--color1, #000)" opacity="0.4" d="M139.931 15.971l0.378-0.429c0.025-0.050 0.076-0.101 0.101-0.151-0.404 0.454-0.833 0.934-1.236 1.413 0.303-0.328 0.555-0.606 0.757-0.833z"></path>
<path fill="#000" style="fill: var(--color1, #000)" d="M141.697 11.329l-9.184-10.496c-0.732-0.858-2.069-1.009-2.927-0.227l-0.353 0.303c-0.858 0.732-1.010 2.069-0.227 2.927l7.922 8.982c2.296 2.296 1.514 4.567 0.934 5.526 0.454-0.53 0.908-1.060 1.337-1.539 0.404-0.479 0.833-0.959 1.236-1.413s0.782-0.883 1.034-1.161c0.883-0.858 1.009-2.044 0.227-2.902z"></path>
<path fill="#000" style="fill: var(--color1, #000)" d="M141.192 24.726l-0.353-0.303c-0.858-0.732-1.009-2.069-0.227-2.927l9.184-10.496c0.732-0.858 2.069-1.009 2.927-0.227l0.353 0.303c0.858 0.732 1.009 2.069 0.227 2.927l-9.184 10.496c-0.732 0.858-2.018 0.959-2.927 0.227z"></path>
<path fill="#000" style="fill: var(--color1, #000)" opacity="0.4" d="M148.661 12.716l-0.177-0.202-1.413 1.615 0.151 0.177c2.422 2.422 1.388 4.87 0.833 5.727l0.202-0.227c0.328-0.378 0.833-0.959 1.362-1.59 0.555-0.959 1.337-3.23-0.959-5.5z"></path>
<path fill="#000" style="fill: var(--color1, #000)" opacity="0.4" d="M151.562 15.971l0.378-0.429c0.025-0.050 0.076-0.101 0.101-0.151-0.404 0.454-0.833 0.934-1.236 1.413 0.303-0.328 0.58-0.606 0.757-0.833z"></path>
<path fill="#000" style="fill: var(--color1, #000)" d="M153.328 11.329l-9.184-10.496c-0.732-0.858-2.069-1.009-2.927-0.227l-0.353 0.303c-0.858 0.732-1.009 2.069-0.227 2.927l7.922 8.982c2.296 2.296 1.514 4.567 0.934 5.526 0.454-0.53 0.908-1.060 1.338-1.539 0.404-0.479 0.833-0.959 1.236-1.413s0.782-0.883 1.034-1.161c0.883-0.858 1.009-2.044 0.227-2.902z"></path>
<path fill="#4b4c4b" style="fill: var(--color2, #4b4c4b)" d="M0.555 24.625c-0.353-0.353-0.555-0.883-0.555-1.539v-20.765c0-0.681 0.202-1.211 0.631-1.64s0.959-0.631 1.64-0.631c0.681 0 1.287 0.202 1.69 0.631 0.429 0.429 0.631 0.959 0.631 1.64v19.15h9.916c1.413 0 2.145 0.631 2.145 1.867s-0.732 1.867-2.145 1.867h-12.363c-0.681 0-1.211-0.202-1.59-0.58z"></path>
<path fill="#4b4c4b" style="fill: var(--color2, #4b4c4b)" d="M20.235 24.777c-0.429-0.429-0.631-0.984-0.631-1.69v-20.79c0-0.681 0.202-1.211 0.631-1.64s0.959-0.631 1.64-0.631c0.681 0 1.287 0.202 1.691 0.631 0.429 0.429 0.631 0.959 0.631 1.64v20.79c0 0.681-0.202 1.262-0.631 1.69s-0.984 0.631-1.691 0.631c-0.656 0-1.211-0.202-1.64-0.631z"></path>
<path fill="#4b4c4b" style="fill: var(--color2, #4b4c4b)" d="M50.437 29.924c0-0.429-0.151-0.833-0.404-1.262l-1.262-1.892c-0.732-1.186-1.615-1.993-2.7-2.346 2.094-0.934 3.709-2.397 4.819-4.415 1.135-1.993 1.69-4.441 1.69-7.241 0-2.599-0.479-4.87-1.438-6.787-0.959-1.892-2.321-3.381-4.113-4.441-1.766-1.009-3.886-1.539-6.282-1.539-2.447 0-4.542 0.479-6.333 1.539-1.766 1.060-3.154 2.523-4.113 4.441-0.934 1.943-1.438 4.188-1.438 6.787 0 2.574 0.479 4.844 1.438 6.787 0.959 1.892 2.321 3.381 4.113 4.441 1.792 1.009 3.886 1.539 6.333 1.539 0.858 0 1.539 0.151 2.069 0.404s0.959 0.656 1.287 1.211l2.069 3.431c0.252 0.379 0.58 0.681 0.934 0.883 0.378 0.202 0.782 0.303 1.211 0.303 0.555 0 1.060-0.202 1.489-0.53s0.631-0.782 0.631-1.312zM48.014 12.716c0 2.927-0.656 5.198-1.943 6.787s-3.078 2.372-5.374 2.372c-2.296 0-4.113-0.782-5.399-2.372s-1.943-3.81-1.943-6.787c0-2.977 0.656-5.198 1.943-6.787 1.287-1.564 3.078-2.346 5.399-2.346s4.087 0.757 5.374 2.346c1.287 1.59 1.943 3.81 1.943 6.787z"></path>
<path fill="#4b4c4b" style="fill: var(--color2, #4b4c4b)" d="M57.501 23.086c0 0.706 0.202 1.262 0.631 1.691 0.378 0.429 0.959 0.631 1.64 0.656 0.706 0 1.262-0.202 1.69-0.631 0.429-0.404 0.631-0.959 0.631-1.691v-7.62h6.333c2.674 0 4.743-0.656 6.232-2.018 1.489-1.337 2.246-3.23 2.246-5.627s-0.757-4.289-2.246-5.601c-1.489-1.362-3.558-2.018-6.232-2.018h-8.705c-0.681 0-1.211 0.202-1.615 0.555-0.404 0.378-0.606 0.908-0.606 1.59v20.715zM72.564 7.897c0 2.725-1.59 4.113-4.718 4.113l-5.753-0.025v-8.2h5.753c3.129 0 4.718 1.388 4.718 4.113z"></path>
<path fill="#4b4c4b" style="fill: var(--color2, #4b4c4b)" d="M100.394 24.777c0.429-0.404 0.656-0.858 0.656-1.388 0-0.328-0.076-0.606-0.177-0.934l-9.815-21.017c-0.227-0.479-0.555-0.833-0.984-1.085-0.429-0.227-0.883-0.353-1.388-0.353s-0.959 0.101-1.388 0.353c-0.454 0.252-0.782 0.631-0.984 1.085l-9.79 21.017c-0.126 0.303-0.202 0.631-0.202 0.934 0 0.555 0.202 1.034 0.656 1.388 0.429 0.353 0.959 0.555 1.489 0.555 0.404 0 0.757-0.101 1.085-0.303s0.58-0.505 0.782-0.934l2.145-4.743h12.414l2.145 4.743c0.177 0.404 0.454 0.732 0.782 0.934s0.706 0.303 1.060 0.303c0.58 0 1.085-0.202 1.514-0.555zM93.38 15.82h-9.361l4.668-10.496 4.693 10.496z"></path>
<path fill="#4b4c4b" style="fill: var(--color2, #4b4c4b)" d="M118.711 0.050c0.53 0 1.009 0.202 1.438 0.631s0.631 0.883 0.631 1.489c0 0.454-0.177 0.934-0.53 1.362l-8.049 9.815v9.815c0 0.732-0.202 1.287-0.631 1.716s-0.959 0.606-1.615 0.606c-0.681 0-1.262-0.202-1.69-0.606s-0.631-0.959-0.631-1.716v-9.815l-7.998-9.84c-0.353-0.429-0.53-0.883-0.53-1.362 0-0.555 0.202-1.060 0.631-1.489s0.934-0.631 1.438-0.631c0.606 0 1.085 0.252 1.514 0.782l7.241 8.982 7.216-8.982c0.429-0.505 0.959-0.757 1.564-0.757z"></path>
</symbol>

<symbol id="icon-package" viewBox="0 0 32 32">
<path fill="#f8c358" style="fill: var(--color1, #f8c358)" d="M14.813 0.063c0.814 0 1.628 0 2.452 0.022 0.124 0.057 0.238 0.087 0.349 0.127 1.172 0.426 2.343 0.853 3.489 1.282-1.916 0.67-3.816 1.312-5.696 2.011-2.828 1.052-5.596 2.25-8.305 3.58-0.977 0.479-1.573 1.243-1.676 2.347-0.040 0.424-0.053 0.851-0.063 1.277-0.043 1.977-0.085 3.954-0.118 5.931-0.006 0.351 0.232 0.47 0.547 0.29 0.271-0.155 0.538-0.316 0.805-0.478 0.404-0.245 0.449-0.236 0.739 0.142 0.431 0.561 0.855 1.129 1.303 1.676 0.088 0.108 0.312 0.221 0.405 0.179 0.122-0.054 0.191-0.254 0.254-0.403 0.033-0.080 0.005-0.185 0.005-0.279 0.006-1.885 0.008-3.77 0.023-5.655 0.004-0.53-0.003-1.068 0.088-1.587 0.198-1.132 0.942-1.802 1.981-2.215 2.763-1.099 5.508-2.242 8.28-3.315 1.501-0.581 3.043-1.055 4.571-1.552 0.359 1.319 0.543 2.645 0.549 3.979 0.005 1.041-0.104 2.088-0.239 3.122-0.217 1.667-0.752 3.246-1.488 4.757-0.695 1.426-1.574 2.725-2.62 3.92-0.985 1.126-2.095 2.103-3.334 2.927-1.477 0.983-3.069 1.738-4.78 2.23-1.449 0.417-2.928 0.659-4.435 0.676-0.765 0.009-1.531-0.063-2.295-0.117-1.173-0.084-2.308-0.36-3.424-0.72-0.354-0.114-0.709-0.225-1.085-0.35-0.109-0.606-0.237-1.196-0.274-1.793-0.057-0.93-0.071-1.864-0.068-2.796 0.009-2.421 0.027-4.841 0.062-7.262 0.015-1.063-0.041-2.148 0.149-3.183 0.352-1.922 1.463-3.36 3.215-4.268 2.184-1.132 4.417-2.157 6.714-3.037 1.271-0.487 2.57-0.898 3.855-1.348 0.031-0.011 0.042-0.077 0.063-0.118z"></path>
<path fill="#faab48" style="fill: var(--color2, #faab48)" d="M1.118 23.879c0.354 0.112 0.709 0.223 1.063 0.337 1.116 0.36 2.251 0.636 3.424 0.72 0.764 0.055 1.531 0.126 2.295 0.117 1.507-0.017 2.985-0.259 4.435-0.676 1.711-0.492 3.303-1.246 4.78-2.23 1.238-0.825 2.349-1.802 3.334-2.927 1.046-1.196 1.925-2.494 2.62-3.92 0.736-1.511 1.271-3.090 1.488-4.757 0.135-1.034 0.243-2.081 0.239-3.122-0.006-1.334-0.19-2.659-0.532-3.993 0.236-0.128 0.459-0.217 0.706-0.305 0.99 0.474 1.959 0.941 2.922 1.421 0.745 0.372 1.404 0.848 1.946 1.499 0.914 1.097 1.38 2.358 1.471 3.764 0.051 0.795 0.067 1.594 0.064 2.392-0.012 3.244-0.034 6.489-0.064 9.733-0.004 0.428-0.043 0.862-0.125 1.282-0.32 1.649-1.095 3.051-2.558 3.917-1.323 0.784-2.716 1.459-4.115 2.102-1.348 0.62-2.735 1.162-4.122 1.692-0.989 0.378-2.007 0.678-3.010 1.018-0.031 0.011-0.043 0.077-0.065 0.117-0.814 0-1.628 0-2.453-0.021-0.592-0.217-1.182-0.388-1.751-0.612-1.767-0.694-3.539-1.378-5.283-2.126-1.239-0.531-2.441-1.147-3.649-1.746-0.848-0.421-1.553-1.030-2.118-1.788-0.425-0.57-0.778-1.185-0.94-1.89z"></path>
<path fill="#fffffe" style="fill: var(--color3, #fffffe)" d="M21.103 1.494c0.581 0.209 1.146 0.402 1.694 0.634 0.715 0.303 1.418 0.635 2.137 0.975-0.211 0.109-0.434 0.198-0.675 0.3-1.541 0.536-3.084 1.010-4.584 1.591-2.772 1.073-5.518 2.216-8.28 3.315-1.039 0.413-1.783 1.083-1.981 2.215-0.091 0.518-0.083 1.057-0.088 1.587-0.015 1.885-0.016 3.77-0.023 5.655-0 0.094 0.028 0.199-0.005 0.279-0.063 0.149-0.132 0.349-0.254 0.403-0.093 0.042-0.317-0.072-0.405-0.179-0.448-0.547-0.873-1.114-1.303-1.676-0.29-0.378-0.335-0.387-0.739-0.142-0.267 0.162-0.534 0.323-0.805 0.478-0.314 0.179-0.553 0.061-0.547-0.29 0.033-1.977 0.074-3.954 0.118-5.931 0.009-0.426 0.023-0.853 0.063-1.277 0.103-1.103 0.699-1.867 1.676-2.347 2.71-1.329 5.477-2.527 8.305-3.58 1.88-0.699 3.78-1.342 5.696-2.011z"></path>
</symbol>

<symbol id="icon-nova-poshta" viewBox="0 0 32 32">
<path fill="#e31f25" style="fill: var(--color1, #e31f25)" d="M32.107 13.44c0 1.744 0 3.489-0.040 5.26-0.083 0.098-0.147 0.164-0.167 0.241-0.178 0.707-0.309 1.429-0.528 2.123-0.953 3.030-2.724 5.5-5.168 7.513-2.112 1.74-4.515 2.826-7.196 3.324-0.088 0.016-0.157 0.135-0.234 0.206-1.744 0-3.489 0-5.26-0.040-0.098-0.083-0.164-0.147-0.241-0.167-0.707-0.178-1.428-0.311-2.123-0.528-3.035-0.948-5.503-2.727-7.516-5.172-1.737-2.11-2.825-4.511-3.321-7.192-0.016-0.088-0.135-0.157-0.206-0.234 0-1.744 0-3.489 0.040-5.26 0.083-0.098 0.147-0.164 0.167-0.241 0.178-0.707 0.309-1.429 0.528-2.123 0.953-3.030 2.724-5.5 5.168-7.513 2.112-1.74 4.515-2.826 7.196-3.324 0.088-0.016 0.157-0.135 0.234-0.206 1.744 0 3.489 0 5.26 0.040 0.098 0.083 0.164 0.147 0.241 0.167 0.707 0.178 1.428 0.311 2.123 0.528 3.035 0.948 5.503 2.727 7.516 5.173 1.737 2.11 2.825 4.511 3.321 7.192 0.016 0.088 0.135 0.157 0.206 0.234zM20.254 6.039c-1.155-1.155-2.309-2.311-3.466-3.464-0.523-0.521-0.835-0.527-1.344-0.019-1.709 1.705-3.416 3.413-5.122 5.122-0.090 0.090-0.162 0.197-0.295 0.362 0.979 0 1.865-0.004 2.752 0.001 0.733 0.004 0.949 0.222 0.952 0.959 0.004 1.172-0.003 2.343 0.003 3.515 0.004 0.62 0.216 0.834 0.829 0.838 1.030 0.007 2.059 0.007 3.089-0 0.611-0.004 0.822-0.218 0.825-0.841 0.007-1.083 0.002-2.166 0.002-3.249 0-1.094 0.128-1.222 1.223-1.223 0.803-0 1.607-0 2.565-0-0.734-0.729-1.348-1.338-2.014-2zM13.239 27.454c0.716 0.716 1.43 1.432 2.147 2.147 0.573 0.571 0.862 0.576 1.42 0.019 1.646-1.643 3.29-3.288 4.934-4.934 0.103-0.104 0.193-0.221 0.348-0.4-0.953 0-1.804 0.004-2.655-0.001-0.732-0.004-0.949-0.223-0.952-0.959-0.004-1.172 0.004-2.344-0.003-3.516-0.004-0.621-0.217-0.835-0.829-0.839-1.030-0.007-2.060-0.007-3.089 0-0.611 0.004-0.822 0.218-0.826 0.842-0.007 1.119-0.002 2.237-0.002 3.356-0.001 0.949-0.168 1.116-1.116 1.117-0.803 0.001-1.606 0-2.549 0 1.115 1.114 2.116 2.115 3.171 3.169zM5.879 20.094c0.643 0.647 1.286 1.294 1.994 2.006 0-4.040 0-7.955 0-11.906-0.078 0.046-0.127 0.062-0.159 0.095-1.748 1.745-3.498 3.49-5.24 5.241-0.409 0.412-0.394 0.759 0.036 1.192 1.102 1.11 2.211 2.213 3.37 3.372zM28.681 17.747c0.314-0.314 0.629-0.627 0.942-0.943 0.543-0.548 0.548-0.846 0.012-1.383-1.657-1.66-3.317-3.319-4.977-4.976-0.088-0.088-0.194-0.159-0.307-0.25 0 3.969 0 7.883 0 11.882 1.467-1.467 2.872-2.872 4.33-4.33z"></path>
<path fill="#fefdfd" style="fill: var(--color2, #fefdfd)" d="M20.281 6.066c0.64 0.636 1.254 1.245 1.988 1.973-0.958 0-1.762-0-2.565 0-1.094 0-1.222 0.128-1.223 1.223-0 1.083 0.005 2.166-0.002 3.249-0.004 0.623-0.214 0.837-0.825 0.841-1.030 0.007-2.059 0.007-3.089 0-0.613-0.004-0.825-0.217-0.829-0.838-0.007-1.172 0.001-2.343-0.003-3.515-0.003-0.737-0.219-0.954-0.952-0.959-0.886-0.005-1.772-0.001-2.752-0.001 0.133-0.164 0.205-0.272 0.295-0.362 1.706-1.709 3.412-3.417 5.122-5.122 0.509-0.507 0.821-0.502 1.344 0.019 1.157 1.153 2.311 2.309 3.492 3.491z"></path>
<path fill="#fefdfd" style="fill: var(--color2, #fefdfd)" d="M13.213 27.427c-1.028-1.027-2.029-2.028-3.144-3.142 0.943 0 1.746 0.001 2.549-0 0.948-0.001 1.115-0.168 1.116-1.117 0.001-1.119-0.005-2.237 0.002-3.356 0.004-0.623 0.214-0.838 0.826-0.842 1.030-0.007 2.060-0.007 3.089-0 0.612 0.004 0.825 0.218 0.828 0.839 0.007 1.172-0.001 2.344 0.003 3.516 0.003 0.736 0.22 0.955 0.952 0.959 0.851 0.005 1.702 0.001 2.655 0.001-0.155 0.179-0.244 0.297-0.348 0.4-1.643 1.646-3.288 3.291-4.934 4.934-0.558 0.557-0.847 0.552-1.42-0.019-0.717-0.715-1.432-1.431-2.174-2.173z"></path>
<path fill="#fefcfc" style="fill: var(--color3, #fefcfc)" d="M5.853 20.067c-1.133-1.133-2.241-2.236-3.343-3.346-0.43-0.433-0.445-0.78-0.036-1.192 1.742-1.751 3.492-3.496 5.24-5.241 0.033-0.033 0.081-0.049 0.159-0.095 0 3.951 0 7.866 0 11.906-0.708-0.713-1.351-1.36-2.021-2.033z"></path>
<path fill="#fefcfc" style="fill: var(--color3, #fefcfc)" d="M28.654 17.774c-1.431 1.431-2.836 2.836-4.303 4.304 0-4 0-7.913 0-11.882 0.112 0.091 0.218 0.162 0.307 0.25 1.66 1.657 3.32 3.316 4.977 4.976 0.536 0.537 0.531 0.836-0.012 1.383-0.313 0.316-0.628 0.629-0.969 0.97z"></path>
</symbol>

<symbol id="icon-rozetka" viewBox="0 0 32 32">
<path fill="#1f201d" style="fill: var(--color4, #1f201d)" d="M28.908 23.075c-1.94 3.433-4.767 5.767-8.515 6.966-1.852 0.593-3.753 0.771-5.69 0.601-5.182-0.455-9.677-3.663-11.879-8.222-0.723-1.496-1.179-3.068-1.364-4.719-0.775-6.908 3.351-13.392 9.918-15.584 1.888-0.63 3.827-0.86 5.809-0.712 6.007 0.449 11.214 4.663 12.912 10.441 0.514 1.75 0.703 3.534 0.56 5.351-0.164 2.079-0.746 4.036-1.752 5.878zM20.089 29.707c5.469-1.605 9.822-6.525 10.202-12.836 0.309-5.135-2.186-10.56-7.554-13.42-3.608-1.922-7.389-2.162-11.274-0.932 0.157 0.406 0.314 0.768 0.435 1.141s0.217 0.756 0.303 1.139c0.085 0.377 0.144 0.759 0.215 1.139-0.015 0.004-0.030 0.008-0.045 0.011-0.015-0.021-0.031-0.042-0.044-0.065-0.244-0.408-0.533-0.775-0.901-1.081-0.911-0.758-1.927-0.925-3.038-0.544-0.837 0.287-1.521 0.816-2.163 1.404-1.432 1.312-2.534 2.861-3.312 4.641-0.686 1.572-1.057 3.218-1.139 4.927-0.048 0.993 0.001 1.983 0.155 2.969 0.223 1.418 0.644 2.773 1.273 4.061 0.927 1.899 2.215 3.514 3.854 4.848 1.251 1.018 2.635 1.802 4.153 2.345 1.19 0.426 2.415 0.683 3.676 0.789 0.955 0.081 1.909 0.075 2.853-0.058 0.782-0.11 1.55-0.309 2.35-0.479z"></path>
<path fill="#00a046" style="fill: var(--color5, #00a046)" d="M20.077 29.712c-0.787 0.165-1.556 0.364-2.337 0.474-0.944 0.133-1.898 0.139-2.853 0.058-1.261-0.107-2.486-0.364-3.676-0.789-1.519-0.543-2.903-1.327-4.153-2.345-1.639-1.334-2.927-2.95-3.854-4.848-0.629-1.288-1.051-2.643-1.273-4.061-0.155-0.985-0.203-1.976-0.155-2.969 0.082-1.709 0.453-3.355 1.139-4.927 0.777-1.78 1.88-3.329 3.312-4.641 0.642-0.588 1.326-1.116 2.163-1.404 1.111-0.382 2.127-0.214 3.038 0.544 0.368 0.306 0.657 0.674 0.901 1.081 0.013 0.022 0.029 0.043 0.044 0.065 0.015-0.004 0.030-0.008 0.045-0.011-0.071-0.38-0.13-0.763-0.215-1.139-0.086-0.383-0.182-0.766-0.303-1.139s-0.278-0.734-0.435-1.141c3.886-1.23 7.667-0.99 11.274 0.932 5.368 2.86 7.863 8.285 7.554 13.42-0.38 6.311-4.732 11.231-10.214 12.841zM12.644 13.961c-0.003 0.002-0.006 0.004-0.021 0.008 0.003-0.001 0.007-0.002 0.021-0.008zM12.719 13.867c0.007-0.009 0.014-0.018 0.043-0.031 0.28-0.252 0.552-0.514 0.841-0.755 1.016-0.846 2.133-1.516 3.406-1.899 0.668-0.201 1.348-0.313 2.048-0.181 1.041 0.197 1.564 0.99 1.45 2.006-0.025 0.223-0.065 0.443-0.099 0.665 0.152-0.239 0.29-0.485 0.406-0.74 0.289-0.636 0.51-1.292 0.451-2.005-0.045-0.552-0.288-0.982-0.806-1.229-0.408-0.195-0.841-0.196-1.272-0.148-0.719 0.080-1.39 0.327-2.033 0.648-1.55 0.773-2.867 1.847-4.020 3.13-0.144 0.16-0.27 0.335-0.419 0.511-0.005 0.010-0.010 0.019-0.028 0.034 0.001 0.007 0.002 0.013 0.004 0.020 0.004-0.008 0.007-0.015 0.028-0.024zM15.395 7.803c0.063-0.035 0.126-0.069 0.188-0.105 1.2-0.704 2.476-1.123 3.888-1.036 1.030 0.064 1.929 0.432 2.667 1.16 0.235 0.232 0.44 0.494 0.66 0.744-0.011-0.062-0.020-0.127-0.033-0.19-0.16-0.779-0.372-1.541-0.792-2.227-0.318-0.519-0.726-0.937-1.314-1.148-0.639-0.229-1.268-0.149-1.885 0.080-1.207 0.447-2.163 1.246-3.008 2.191-0.146 0.164-0.269 0.349-0.414 0.53 0.001 0.007 0.002 0.013 0.003 0.020 0.005-0.006 0.010-0.013 0.040-0.020zM19.794 26.344c0.182-0.231 0.371-0.456 0.546-0.693 1.001-1.353 1.805-2.821 2.525-4.338 1.172-2.471 2.106-5.032 2.913-7.641 0.101-0.326 0.192-0.656 0.298-1.017-0.069 0.038-0.106 0.057-0.141 0.079-0.598 0.372-1.19 0.756-1.795 1.116-1.731 1.029-3.542 1.891-5.441 2.565-1.349 0.479-2.727 0.852-4.14 1.097-1.017 0.176-2.040 0.289-3.071 0.318-1.038 0.030-2.073-0.014-3.103-0.159-1.029-0.145-2.039-0.361-3.013-0.729-0.142-0.054-0.284-0.107-0.438-0.165-0.025 0.5 0.078 0.96 0.203 1.413 0.294 1.064 0.742 2.065 1.27 3.032 1.010 1.85 2.247 3.526 3.811 4.95 0.771 0.702 1.609 1.309 2.544 1.776 0.925 0.462 1.9 0.743 2.935 0.776 0.801 0.026 1.525-0.239 2.197-0.662 0.727-0.458 1.326-1.056 1.9-1.718zM10.94 8.577c-0.125-0.259-0.223-0.536-0.38-0.774-0.571-0.865-1.461-1.033-2.318-0.455-0.519 0.35-0.892 0.83-1.184 1.374-0.739 1.377-1.007 2.842-0.788 4.39 0.087 0.61 0.28 1.185 0.66 1.685 0.499 0.657 1.247 0.84 1.978 0.467 0.649-0.331 1.078-0.88 1.423-1.499 0.49-0.879 0.756-1.827 0.843-2.83 0.069-0.793 0.021-1.572-0.234-2.357z"></path>
<path fill="#1d1d1b" style="fill: var(--color6, #1d1d1b)" d="M19.787 26.353c-0.567 0.652-1.166 1.25-1.893 1.708-0.672 0.423-1.396 0.688-2.197 0.662-1.035-0.033-2.010-0.314-2.935-0.776-0.935-0.467-1.773-1.074-2.544-1.776-1.564-1.424-2.801-3.1-3.811-4.95-0.528-0.967-0.976-1.968-1.27-3.032-0.125-0.454-0.228-0.914-0.203-1.413 0.154 0.058 0.296 0.111 0.438 0.165 0.974 0.368 1.984 0.585 3.013 0.729 1.030 0.145 2.065 0.189 3.103 0.159 1.031-0.029 2.054-0.142 3.071-0.318 1.412-0.245 2.79-0.617 4.14-1.097 1.899-0.674 3.71-1.537 5.441-2.565 0.606-0.36 1.197-0.744 1.795-1.116 0.035-0.022 0.072-0.041 0.141-0.079-0.106 0.361-0.197 0.691-0.298 1.017-0.807 2.61-1.741 5.171-2.913 7.641-0.72 1.517-1.524 2.985-2.525 4.338-0.175 0.236-0.363 0.462-0.553 0.702zM17.529 27.781c0.491-0.289 0.926-0.649 1.326-1.053 0.749-0.758 1.366-1.618 1.923-2.522 0.179-0.291 0.349-0.588 0.531-0.893-0.046-0.009-0.067-0.016-0.088-0.016-0.626-0.001-1.253-0.015-1.878 0.002-0.934 0.026-1.85 0.181-2.749 0.435-1.534 0.434-2.904 1.156-4.003 2.332-0.258 0.276-0.476 0.589-0.74 0.919 0.462 0.251 0.867 0.491 1.29 0.696 0.709 0.344 1.462 0.547 2.248 0.614 0.76 0.065 1.463-0.122 2.14-0.514z"></path>
<path fill="#1d1e1b" style="fill: var(--color7, #1d1e1b)" d="M15.364 7.798c0.133-0.176 0.256-0.361 0.402-0.525 0.845-0.946 1.801-1.744 3.008-2.191 0.617-0.229 1.246-0.309 1.885-0.080 0.587 0.211 0.996 0.629 1.314 1.148 0.42 0.686 0.632 1.448 0.792 2.227 0.013 0.064 0.022 0.128 0.033 0.19-0.221-0.251-0.425-0.513-0.66-0.744-0.738-0.728-1.637-1.096-2.667-1.16-1.412-0.088-2.688 0.332-3.888 1.036-0.062 0.036-0.126 0.070-0.202 0.104-0.014-0.001-0.017-0.004-0.017-0.004z"></path>
<path fill="#1d1e1b" style="fill: var(--color7, #1d1e1b)" d="M12.729 13.83c0.134-0.168 0.26-0.344 0.404-0.504 1.153-1.283 2.471-2.358 4.020-3.13 0.643-0.32 1.314-0.568 2.033-0.648 0.431-0.048 0.865-0.046 1.272 0.148 0.518 0.247 0.761 0.678 0.806 1.229 0.059 0.714-0.162 1.369-0.451 2.005-0.116 0.256-0.253 0.501-0.406 0.74 0.033-0.222 0.074-0.442 0.099-0.665 0.114-1.017-0.409-1.809-1.45-2.006-0.7-0.133-1.38-0.020-2.048 0.181-1.273 0.384-2.39 1.053-3.406 1.899-0.289 0.241-0.561 0.503-0.855 0.755-0.014-0-0.019-0.005-0.019-0.005z"></path>
<path fill="#1c201c" style="fill: var(--color8, #1c201c)" d="M10.945 8.59c0.25 0.774 0.297 1.552 0.229 2.345-0.087 1.003-0.353 1.951-0.843 2.83-0.345 0.619-0.774 1.168-1.423 1.499-0.731 0.373-1.479 0.19-1.978-0.467-0.38-0.5-0.573-1.075-0.66-1.685-0.22-1.548 0.049-3.013 0.788-4.39 0.292-0.544 0.665-1.024 1.184-1.374 0.857-0.578 1.747-0.41 2.318 0.455 0.157 0.238 0.255 0.515 0.385 0.786zM10.818 10.966c-0.009-0.51 0.017-1.022-0.035-1.528-0.055-0.537-0.22-1.054-0.549-1.499-0.288-0.39-0.66-0.626-1.166-0.57-0.361 0.040-0.657 0.225-0.92 0.465-0.499 0.455-0.831 1.023-1.078 1.643-0.45 1.127-0.618 2.297-0.466 3.503 0.070 0.554 0.226 1.085 0.558 1.549 0.441 0.615 1.131 0.753 1.77 0.348 0.338-0.214 0.605-0.504 0.829-0.832 0.629-0.92 0.936-1.951 1.056-3.078z"></path>
<path fill="#1d1e1b" style="fill: var(--color7, #1d1e1b)" d="M15.369 7.803c-0.004 0.008-0.009 0.014-0.014 0.021-0.001-0.007-0.002-0.013 0.003-0.023 0.006-0.003 0.009 0 0.011 0.002z"></path>
<path fill="#1d1e1b" style="fill: var(--color7, #1d1e1b)" d="M12.737 13.837c-0.004 0.011-0.011 0.020-0.028 0.029-0.009 0-0.010-0.001-0.010-0.001 0.005-0.010 0.010-0.019 0.023-0.033 0.008-0.004 0.013 0.001 0.015 0.004z"></path>
<path fill="#1d1e1b" style="fill: var(--color7, #1d1e1b)" d="M12.701 13.868c-0.003 0.008-0.007 0.016-0.011 0.023-0.001-0.007-0.002-0.013 0.003-0.022 0.006-0.003 0.007-0.002 0.008-0.001z"></path>
<path fill="#1d1e1b" style="fill: var(--color7, #1d1e1b)" d="M12.635 13.968c0.003-0.002 0.006-0.004 0.004-0.004-0.005 0.003-0.004 0.004-0.004 0.004z"></path>
<path fill="#1d1e1b" style="fill: var(--color7, #1d1e1b)" d="M12.633 13.966c-0.004 0-0.007 0.002-0.004 0.002 0.006-0 0.005-0.001 0.004-0.002z"></path>
<path fill="#00a046" style="fill: var(--color5, #00a046)" d="M17.519 27.788c-0.667 0.385-1.369 0.573-2.129 0.508-0.786-0.067-1.539-0.27-2.248-0.614-0.423-0.205-0.829-0.446-1.29-0.696 0.264-0.33 0.482-0.643 0.74-0.919 1.1-1.176 2.47-1.898 4.003-2.332 0.898-0.255 1.815-0.41 2.749-0.435 0.626-0.017 1.252-0.003 1.878-0.002 0.021 0 0.042 0.007 0.088 0.016-0.181 0.306-0.351 0.602-0.531 0.893-0.558 0.904-1.174 1.764-1.923 2.522-0.4 0.404-0.834 0.764-1.336 1.059z"></path>
<path fill="#009f46" style="fill: var(--color9, #009f46)" d="M10.814 10.98c-0.116 1.113-0.423 2.144-1.052 3.064-0.224 0.328-0.491 0.617-0.829 0.832-0.639 0.405-1.329 0.267-1.77-0.348-0.332-0.464-0.489-0.995-0.558-1.549-0.152-1.206 0.016-2.376 0.466-3.503 0.247-0.619 0.578-1.187 1.078-1.643 0.263-0.24 0.559-0.424 0.92-0.465 0.505-0.056 0.877 0.18 1.166 0.57 0.329 0.445 0.494 0.962 0.549 1.499 0.052 0.505 0.026 1.018 0.031 1.542zM8.791 12.494c0.305 0.22 0.595 0.202 0.886-0.055 0.609-0.539 0.868-1.708 0.544-2.457-0.163-0.377-0.491-0.543-0.826-0.41-0.275 0.109-0.452 0.321-0.595 0.573 0.196 0.143 0.302 0.317 0.25 0.55-0.067 0.296-0.293 0.394-0.581 0.412-0.060 0.5-0.029 0.968 0.323 1.387z"></path>
<path fill="#1d1e1b" style="fill: var(--color7, #1d1e1b)" d="M8.782 12.486c-0.343-0.411-0.374-0.879-0.314-1.379 0.288-0.018 0.514-0.116 0.581-0.412 0.053-0.233-0.054-0.407-0.25-0.55 0.143-0.252 0.32-0.464 0.595-0.573 0.335-0.132 0.663 0.033 0.826 0.41 0.324 0.748 0.065 1.918-0.544 2.457-0.29 0.257-0.581 0.275-0.895 0.047z"></path>
</symbol>

<symbol id="icon-ukr-poshta" viewBox="0 0 32 32">
<path fill="#fdc13d" style="fill: var(--color10, #fdc13d)" d="M20.754 32c-6.949 0-13.851 0-20.754 0 0-10.667 0-21.333 0-32 10.667 0 21.333 0 32 0 0 10.667 0 21.333 0 32-3.733 0-7.467 0-11.246 0zM22.934 12.304c-0.096-3.805-3.294-6.783-7.273-6.332-5.621 0.638-8.462 6.96-5.234 11.601 1.896 2.726 3.806 5.441 5.713 8.159 0.090 0.128 0.204 0.238 0.337 0.391 0.136-0.175 0.233-0.289 0.319-0.411 1.364-1.945 2.727-3.891 4.091-5.836 0.463-0.661 0.925-1.323 1.393-1.98 0.18-0.253 0.173-0.414-0.173-0.464-0.090-0.013-0.178-0.042-0.267-0.062-2.136-0.487-4.282-0.935-6.405-1.472-1.657-0.42-2.711-1.981-2.636-3.721 0.069-1.616 1.311-3.061 2.911-3.386 1.695-0.344 3.367 0.512 4.102 2.1 0.692 1.494 0.244 3.321-1.069 4.367-0.126 0.1-0.252 0.201-0.444 0.354 0.196 0.062 0.303 0.105 0.415 0.131 0.801 0.183 1.61 0.337 2.402 0.554 0.357 0.098 0.527-0.019 0.707-0.291 0.726-1.099 1.079-2.308 1.112-3.702z"></path>
<path fill="#fffffe" style="fill: var(--color11, #fffffe)" d="M22.934 12.346c-0.034 1.352-0.386 2.561-1.112 3.659-0.18 0.272-0.35 0.389-0.707 0.291-0.792-0.217-1.601-0.371-2.402-0.554-0.111-0.025-0.219-0.068-0.415-0.131 0.192-0.153 0.318-0.254 0.444-0.354 1.314-1.046 1.761-2.873 1.069-4.367-0.735-1.588-2.407-2.444-4.102-2.1-1.599 0.325-2.842 1.77-2.911 3.386-0.074 1.74 0.979 3.301 2.636 3.721 2.123 0.538 4.269 0.985 6.405 1.472 0.089 0.020 0.177 0.049 0.267 0.062 0.346 0.049 0.353 0.211 0.173 0.464-0.469 0.657-0.93 1.319-1.393 1.98-1.364 1.945-2.727 3.891-4.091 5.836-0.086 0.122-0.183 0.236-0.319 0.411-0.133-0.153-0.247-0.263-0.337-0.391-1.906-2.718-3.817-5.433-5.713-8.159-3.228-4.642-0.387-10.963 5.234-11.601 3.979-0.451 7.177 2.527 7.273 6.374z"></path>
</symbol>

<symbol id="icon-facebook-register" viewBox="0 0 34 32">
<path fill="#314eb6" style="fill: var(--color5, #314eb6)" d="M19.556 18h3.333l1.333-5.333h-4.667v-2.667c0-1.373 0-2.667 2.667-2.667h2v-4.48c-0.435-0.057-2.076-0.187-3.809-0.187-3.62 0-6.191 2.209-6.191 6.267v3.733h-4v5.333h4v11.333h5.333v-11.333z"></path>
</symbol>

<symbol id="icon-google" viewBox="0 0 32 32">
<path fill="#ffc107" style="fill: var(--color1, #ffc107)" d="M29.074 13.389h-1.074v-0.055h-12v5.333h7.535c-1.099 3.105-4.053 5.333-7.535 5.333-4.418 0-8-3.582-8-8s3.582-8 8-8c2.039 0 3.895 0.769 5.307 2.026l3.771-3.771c-2.381-2.219-5.567-3.588-9.079-3.588-7.363 0-13.333 5.97-13.333 13.333s5.97 13.333 13.333 13.333c7.363 0 13.333-5.97 13.333-13.333 0-0.894-0.092-1.767-0.259-2.611z"></path>
<path fill="#ff3d00" style="fill: var(--color2, #ff3d00)" d="M4.205 9.794l4.381 3.213c1.185-2.935 4.056-5.007 7.415-5.007 2.039 0 3.895 0.769 5.307 2.026l3.771-3.771c-2.381-2.219-5.567-3.588-9.079-3.588-5.121 0-9.563 2.891-11.796 7.127z"></path>
<path fill="#4caf50" style="fill: var(--color3, #4caf50)" d="M16 29.332c3.444 0 6.573-1.318 8.939-3.461l-4.127-3.492c-1.384 1.052-3.074 1.622-4.813 1.62-3.468 0-6.413-2.211-7.522-5.297l-4.348 3.35c2.207 4.318 6.688 7.281 11.87 7.281z"></path>
<path fill="#1976d2" style="fill: var(--color4, #1976d2)" d="M29.074 13.389h-1.074v-0.055h-12v5.333h7.535c-0.526 1.478-1.473 2.769-2.725 3.714l0.002-0.001 4.127 3.492c-0.292 0.265 4.394-3.205 4.394-9.871 0-0.894-0.092-1.767-0.259-2.611z"></path>
</symbol>

<symbol id="icon-closed-eye" viewBox="0 0 43 32">
<path fill="none" stroke="#dbdce6" style="stroke: var(--color1, #dbdce6)" stroke-linejoin="round" stroke-linecap="round" stroke-miterlimit="4" stroke-width="3.5556" d="M28.855 16c0 1.965-0.793 3.849-2.203 5.238s-3.324 2.17-5.318 2.17M13.812 16c0-1.965 0.792-3.849 2.203-5.238s3.324-2.17 5.318-2.17M16.82 28.821c1.48 0.338 2.994 0.51 4.513 0.513 10.801 0 19.556-8.889 19.556-13.333 0-1.979-1.737-4.841-4.62-7.407M26.598 3.363c-1.716-0.458-3.487-0.692-5.265-0.696-10.801 0-19.556 8.889-19.556 13.333 0 1.956 1.695 4.77 4.513 7.311M7.795 29.333l27.077-26.667"></path>
</symbol>

<symbol id="icon-opened-eye" viewBox="0 0 44 32">
<path d="M22 10c-1.591 0-3.117 0.632-4.243 1.757s-1.757 2.651-1.757 4.243c0 1.591 0.632 3.117 1.757 4.243s2.651 1.757 4.243 1.757c1.591 0 3.117-0.632 4.243-1.757s1.757-2.651 1.757-4.243c0-1.591-0.632-3.117-1.757-4.243s-2.651-1.757-4.243-1.757zM22 26c-2.652 0-5.196-1.054-7.071-2.929s-2.929-4.419-2.929-7.071 1.054-5.196 2.929-7.071c1.875-1.875 4.419-2.929 7.071-2.929s5.196 1.054 7.071 2.929c1.875 1.875 2.929 4.419 2.929 7.071s-1.054 5.196-2.929 7.071c-1.875 1.875-4.419 2.929-7.071 2.929zM22 1c-10 0-18.54 6.22-22 15 3.46 8.78 12 15 22 15s18.54-6.22 22-15c-3.46-8.78-12-15-22-15z"></path>
</symbol>

<symbol id="icon-arrow-left" viewBox="0 0 32 32">
<path stroke-linejoin="round" stroke-linecap="round" stroke-miterlimit="4" stroke-width="2" d="M26 16h-20M6 16l9 9M6 16l9-9"></path>
</symbol>  

<symbol id="icon-banknotes" viewBox="0 0 32 32">
<path stroke-linejoin="round" stroke-linecap="round" stroke-miterlimit="4" stroke-width="2" d="M3 25c7.29 0 14.351 0.975 21.062 2.802 0.969 0.264 1.938-0.457 1.938-1.461v-1.34M5 6v1c0 0.552-0.448 1-1 1h-1M3 8v-0.5c0-0.828 0.672-1.5 1.5-1.5h22.5M3 8v12M27 6v1c0 0.552 0.448 1 1 1h1M27 6h0.5c0.828 0 1.5 0.672 1.5 1.5v13c0 0.828-0.672 1.5-1.5 1.5h-0.5M29 20h-1c-0.552 0-1 0.448-1 1v1M27 22h-22M5 22h-0.5c-0.828 0-1.5-0.672-1.5-1.5v-0.5M5 22v-1c0-0.552-0.448-1-1-1h-1M20 14c0 2.209-1.791 4-4 4s-4-1.791-4-4c0-2.209 1.791-4 4-4s4 1.791 4 4zM24 14h0.010v0.010h-0.010v-0.010zM8 14h0.010v0.010h-0.010v-0.010z"></path>
</symbol>

<symbol id="icon-bell" viewBox="0 0 32 32">
<path stroke-linejoin="round" stroke-linecap="round" stroke-miterlimit="4" stroke-width="2" d="M19.809 22.776c2.526-0.3 4.962-0.893 7.272-1.746-1.916-2.127-3.082-4.942-3.082-8.029v-0.934c0-0.022 0-0.044 0-0.066 0-4.418-3.582-8-8-8s-8 3.582-8 8l-0 1c0 3.087-1.166 5.903-3.082 8.029 2.311 0.853 4.747 1.447 7.273 1.747M19.809 22.776c-1.249 0.148-2.52 0.224-3.809 0.224s-2.56-0.076-3.809-0.224M19.809 22.776c0.124 0.386 0.191 0.797 0.191 1.224 0 2.209-1.791 4-4 4s-4-1.791-4-4c0-0.427 0.067-0.838 0.191-1.224"></path>
</symbol>

<symbol id="icon-chat-bubble" viewBox="0 0 32 32">
<path stroke-linejoin="round" stroke-linecap="round" stroke-miterlimit="4" stroke-width="2" d="M10 11h12M10 15h6M3 17.012c0 2.135 1.498 3.993 3.61 4.304 1.505 0.221 3.026 0.39 4.563 0.505 0.467 0.035 0.894 0.28 1.153 0.669l3.673 5.51 3.673-5.51c0.26-0.39 0.687-0.634 1.153-0.669 1.537-0.115 3.059-0.283 4.563-0.505 2.112-0.311 3.61-2.169 3.61-4.303v-8.025c0-2.135-1.498-3.993-3.61-4.303-3.065-0.451-6.2-0.684-9.39-0.684s-6.326 0.233-9.39 0.684c-2.112 0.311-3.61 2.169-3.61 4.303v8.025z"></path>
</symbol>

<symbol id="icon-chat-bubble-2" viewBox="0 0 32 32">
<path stroke-linejoin="round" stroke-linecap="round" stroke-miterlimit="4" stroke-width="2" d="M27 11.348c1.179 0.379 2 1.504 2 2.796v5.714c0 1.515-1.13 2.801-2.64 2.924-0.452 0.037-0.905 0.069-1.36 0.097v4.121l-4-4c-1.805 0-3.593-0.074-5.36-0.218-0.398-0.032-0.769-0.145-1.1-0.322M27 11.348c-0.202-0.065-0.414-0.108-0.635-0.126-1.769-0.147-3.558-0.222-5.365-0.222s-3.596 0.075-5.365 0.222c-1.508 0.125-2.635 1.409-2.635 2.923v5.714c0 1.116 0.613 2.108 1.54 2.602M27 11.348v-2.498c0-2.162-1.536-4.036-3.68-4.314-2.723-0.354-5.5-0.536-8.32-0.536s-5.597 0.182-8.321 0.536c-2.144 0.278-3.679 2.152-3.679 4.314v8.3c0 2.162 1.536 4.036 3.68 4.314 0.769 0.1 1.543 0.186 2.32 0.258v6.278l5.54-5.54"></path>
</symbol>

<symbol id="icon-bin" viewBox="0 0 32 32">
<path fill="none" stroke="#314eb6" style="stroke: var(--color1, #314eb6)" stroke-linejoin="round" stroke-linecap="round" stroke-miterlimit="4" stroke-width="2" d="M19.654 12l-0.462 12M12.808 24l-0.462-12M25.637 7.721c0.456 0.069 0.91 0.143 1.363 0.221M25.637 7.721l-1.424 18.509c-0.12 1.563-1.424 2.77-2.991 2.77h-10.444c-1.568 0-2.871-1.207-2.991-2.77l-1.424-18.509M25.637 7.721c-1.529-0.231-3.075-0.408-4.637-0.528M5 7.942c0.453-0.078 0.907-0.152 1.363-0.221M6.363 7.721c1.529-0.231 3.075-0.408 4.637-0.528M21 7.192v-1.221c0-1.572-1.214-2.885-2.786-2.936-0.735-0.023-1.473-0.035-2.214-0.035s-1.479 0.012-2.214 0.035c-1.572 0.050-2.786 1.363-2.786 2.936v1.221M21 7.192c-1.65-0.128-3.317-0.192-5-0.192s-3.35 0.065-5 0.192"></path>
</symbol>

<symbol id="icon-edit" viewBox="0 0 32 32">
<path fill="none" stroke="#314eb6" style="stroke: var(--color1, #314eb6)" stroke-linejoin="round" stroke-linecap="round" stroke-miterlimit="4" stroke-width="2" d="M22.482 5.982l2.25-2.25c0.976-0.976 2.559-0.976 3.535 0s0.976 2.559 0 3.536l-14.158 14.158c-0.705 0.705-1.574 1.223-2.53 1.508l-3.58 1.066 1.066-3.58c0.285-0.955 0.803-1.825 1.508-2.53l11.908-11.908zM22.482 5.982l3.518 3.518M24 18.667v6.333c0 1.657-1.343 3-3 3h-14c-1.657 0-3-1.343-3-3v-14c0-1.657 1.343-3 3-3h6.333"></path>
</symbol>

<symbol id="icon-currency-euro" viewBox="0 0 32 32">
<path stroke-linejoin="round" stroke-linecap="round" stroke-miterlimit="4" stroke-width="2" d="M19 10.342c-2.111-0.744-4.555-0.272-6.243 1.416-2.343 2.343-2.343 6.142 0 8.485 1.688 1.688 4.132 2.16 6.243 1.416M10 14h7M10 18h7M28 16c0 6.627-5.373 12-12 12s-12-5.373-12-12c0-6.627 5.373-12 12-12s12 5.373 12 12z"></path>
</symbol>

<symbol id="icon-document-text" viewBox="0 0 32 32">
<path stroke-linejoin="round" stroke-linecap="round" stroke-miterlimit="4" stroke-width="2.2857" d="M26 19v-3.5c0-2.485-2.015-4.5-4.5-4.5h-2c-0.828 0-1.5-0.672-1.5-1.5v-2c0-2.485-2.015-4.5-4.5-4.5h-2.5M11 20h10M11 24h5M14 3h-6.5c-0.828 0-1.5 0.672-1.5 1.5v23c0 0.828 0.672 1.5 1.5 1.5h17c0.828 0 1.5-0.672 1.5-1.5v-12.5c0-6.627-5.373-12-12-12z"></path>
</symbol>

<symbol id="icon-envelope-open" viewBox="0 0 32 32">
<path stroke-linejoin="round" stroke-linecap="round" stroke-miterlimit="4" stroke-width="2" d="M29 11.999v1.208c0 1.104-0.606 2.118-1.578 2.641l-8.637 4.651M3 11.999v1.208c0 1.104 0.606 2.118 1.578 2.641l8.637 4.651M25 23.845l-6.214-3.346M18.786 20.499l-1.363-0.734c-0.888-0.478-1.957-0.478-2.845 0l-1.363 0.734M13.214 20.499l-6.214 3.346M29 25.999c0 1.657-1.343 3-3 3h-20c-1.657 0-3-1.343-3-3v-14.208c0-1.104 0.606-2.118 1.578-2.641l10-5.385c0.888-0.478 1.957-0.478 2.845 0l10 5.385c0.972 0.523 1.578 1.538 1.578 2.641v14.208z"></path>
</symbol>

<symbol id="icon-eye" viewBox="0 0 32 32">
<path stroke-linejoin="round" stroke-linecap="round" stroke-miterlimit="4" stroke-width="2" d="M2.714 16.43c-0.092-0.276-0.092-0.576-0-0.852 1.851-5.565 7.101-9.578 13.287-9.578 6.184 0 11.431 4.009 13.285 9.57 0.092 0.276 0.092 0.576 0 0.852-1.851 5.565-7.101 9.578-13.287 9.578-6.184 0-11.431-4.009-13.285-9.57z"></path>
<path stroke-linejoin="round" stroke-linecap="round" stroke-miterlimit="4" stroke-width="2" d="M20 16c0 2.209-1.791 4-4 4s-4-1.791-4-4 1.791-4 4-4c2.209 0 4 1.791 4 4z"></path>
</symbol>

<symbol id="icon-lock-closed" viewBox="0 0 32 32">
<path stroke-linejoin="round" stroke-linecap="round" stroke-miterlimit="4" stroke-width="2.2857" d="M22 14v-5c0-3.314-2.686-6-6-6s-6 2.686-6 6v5M9 29h14c1.657 0 3-1.343 3-3v-9c0-1.657-1.343-3-3-3h-14c-1.657 0-3 1.343-3 3v9c0 1.657 1.343 3 3 3z"></path>
</symbol>

<symbol id="icon-queue-list" viewBox="0 0 32 32">
<path stroke-linejoin="round" stroke-linecap="round" stroke-miterlimit="4" stroke-width="2" d="M5 16h22M5 21h22M5 26h22M7.5 6h17c1.381 0 2.5 1.119 2.5 2.5s-1.119 2.5-2.5 2.5h-17c-1.381 0-2.5-1.119-2.5-2.5s1.119-2.5 2.5-2.5z"></path>
</symbol>

<symbol id="icon-scale" viewBox="0 0 32 32">
<path stroke-linejoin="round" stroke-linecap="round" stroke-miterlimit="4" stroke-width="2" d="M16 4v23M16 27c-1.963 0-3.843 0.353-5.58 1M16 27c1.963 0 3.843 0.353 5.58 1M25 6.628c-2.941-0.414-5.945-0.628-9-0.628s-6.059 0.214-9 0.628M25 6.628c1.347 0.19 2.681 0.421 4 0.693M25 6.628l3.494 14.3c0.162 0.665-0.142 1.37-0.786 1.602-0.846 0.304-1.758 0.47-2.708 0.47s-1.862-0.166-2.708-0.47c-0.644-0.232-0.948-0.937-0.786-1.602l3.494-14.3zM3 7.321c1.319-0.272 2.653-0.504 4-0.693M7 6.628l3.494 14.3c0.162 0.665-0.142 1.37-0.786 1.602-0.846 0.304-1.758 0.47-2.708 0.47s-1.862-0.166-2.708-0.47c-0.644-0.232-0.948-0.937-0.786-1.602l3.494-14.3z"></path>
</symbol>

<symbol id="icon-truck" viewBox="0 0 32 32">
<path stroke-linejoin="round" stroke-linecap="round" stroke-miterlimit="4" stroke-width="2.2857" d="M11 25c0 1.105-0.895 2-2 2s-2-0.895-2-2M11 25c0-1.105-0.895-2-2-2s-2 0.895-2 2M11 25h8M7 25h-2.5c-0.828 0-1.5-0.672-1.5-1.5v-4.499M26 25c0 1.105-0.895 2-2 2s-2-0.895-2-2M26 25c0-1.105-0.895-2-2-2s-2 0.895-2 2M26 25h1.5c0.828 0 1.505-0.672 1.454-1.499-0.28-4.544-1.824-8.745-4.285-12.257-0.483-0.689-1.265-1.1-2.105-1.146h-3.564M22 25h-3M19 10.098v-1.278c0-0.757-0.563-1.397-1.316-1.475-2.197-0.228-4.427-0.345-6.684-0.345s-4.487 0.117-6.684 0.345c-0.753 0.078-1.316 0.718-1.316 1.475v10.181M19 10.098v8.903M19 25v-5.999M19 19.001h-16"></path>
</symbol>

<symbol id="icon-user-circle" viewBox="0 0 32 32">
<path stroke-linejoin="round" stroke-linecap="round" stroke-miterlimit="4" stroke-width="2.2857" d="M23.975 24.966c-1.826-2.41-4.719-3.966-7.975-3.966s-6.149 1.557-7.975 3.966M23.975 24.966c2.469-2.198 4.025-5.401 4.025-8.966 0-6.627-5.373-12-12-12s-12 5.373-12 12c0 3.566 1.555 6.768 4.025 8.966M23.975 24.966c-2.12 1.887-4.914 3.034-7.975 3.034s-5.855-1.146-7.975-3.034M20 13c0 2.209-1.791 4-4 4s-4-1.791-4-4c0-2.209 1.791-4 4-4s4 1.791 4 4z"></path>
</symbol>

</defs>
</svg>