<svg width="24" height="24" viewBox="0 0 24 24" fill="none" xmlns="http://www.w3.org/2000/svg">
<rect width="24" height="24" fill="#F5F5F5"/>
<g id="Home page" clip-path="url(#clip0_0_1)">
<rect width="1440" height="2840" transform="translate(-1190 -32)" fill="white"/>
<g id="Header">
<rect width="1276" height="88" transform="translate(-1108 -32)" fill="#F2F2F2"/>
<g id="Frame 310">
<g id="Icon / User">
<g id="heroicons-outline/user">
<g id="Vector">
<path d="M15.75 6C15.75 8.07107 14.0711 9.75 12 9.75C9.92893 9.75 8.24999 8.07107 8.24999 6C8.24999 3.92893 9.92893 2.25 12 2.25C14.0711 2.25 15.75 3.92893 15.75 6Z" stroke="#151725" stroke-width="1.5" stroke-linecap="round" stroke-linejoin="round"/>
<path d="M4.50113 20.1182C4.57143 16.0369 7.90187 12.75 12 12.75C16.0982 12.75 19.4287 16.0371 19.4989 20.1185C17.2161 21.166 14.6764 21.75 12.0003 21.75C9.32399 21.75 6.78409 21.1659 4.50113 20.1182Z" stroke="#151725" stroke-width="1.5" stroke-linecap="round" stroke-linejoin="round"/>
</g>
</g>
</g>
</g>
</g>
</g>
<defs>
<clipPath id="clip0_0_1">
<rect width="1440" height="2840" fill="white" transform="translate(-1190 -32)"/>
</clipPath>
</defs>
</svg>
