<svg width="24" height="24" viewBox="0 0 24 24" fill="none" xmlns="http://www.w3.org/2000/svg">
<rect width="24" height="24" fill="#A3ADC0"/>
<g id="&#208;&#146;&#208;&#176;&#208;&#185;&#209;&#128;&#209;&#132;&#209;&#128;&#208;&#181;&#208;&#185;&#208;&#188;&#208;&#184;">
<g id="Icons">
<path d="M-1416 -2264C-1416 -2270.63 -1410.63 -2276 -1404 -2276H3741C3747.63 -2276 3753 -2270.63 3753 -2264V492C3753 498.627 3747.63 504 3741 504H-1404C-1410.63 504 -1416 498.627 -1416 492V-2264Z" fill="white"/>
<g id="Types">
<g id="Outline" filter="url(#filter0_d_25_2)">
<mask id="path-4-inside-1_25_2" fill="white">
<path d="M-1316 -1920C-1316 -1931.05 -1307.05 -1940 -1296 -1940H360C371.046 -1940 380 -1931.05 380 -1920V356C380 367.046 371.046 376 360 376H-1296C-1307.05 376 -1316 367.046 -1316 356V-1920Z"/>
</mask>
<path d="M-1316 -1920C-1316 -1931.05 -1307.05 -1940 -1296 -1940H360C371.046 -1940 380 -1931.05 380 -1920V356C380 367.046 371.046 376 360 376H-1296C-1307.05 376 -1316 367.046 -1316 356V-1920Z" fill="white" shape-rendering="crispEdges"/>
<g id="Frame">
<g id="Frame_2">
<g id="heroicons-outline/x-mark">
<g clip-path="url(#clip0_25_2)">
<g id="size=S">
<path id="Vector" d="M6 18L18 6M6 6L18 18" stroke="#0F172A" stroke-width="1.5" stroke-linecap="round" stroke-linejoin="round"/>
</g>
</g>
</g>
</g>
</g>
<path d="M-1316 -1920C-1316 -1936.57 -1302.57 -1950 -1286 -1950H350C366.568 -1950 380 -1936.57 380 -1920C380 -1925.52 371.046 -1930 360 -1930H-1296C-1307.05 -1930 -1316 -1925.52 -1316 -1920ZM380 376H-1316H380ZM-1316 376V-1940V376ZM380 -1940V376V-1940Z" fill="#FDF7C3" mask="url(#path-4-inside-1_25_2)"/>
</g>
</g>
</g>
<path d="M-14050 -6513H7445V-6533H-14050V-6513ZM7437 -6521V3012H7457V-6521H7437ZM7445 3004H-14050V3024H7445V3004ZM-14042 3012V-6521H-14062V3012H-14042ZM-14050 3004C-14045.6 3004 -14042 3007.58 -14042 3012H-14062C-14062 3018.63 -14056.6 3024 -14050 3024V3004ZM7437 3012C7437 3007.58 7440.58 3004 7445 3004V3024C7451.63 3024 7457 3018.63 7457 3012H7437ZM7445 -6513C7440.58 -6513 7437 -6516.58 7437 -6521H7457C7457 -6527.63 7451.62 -6533 7445 -6533V-6513ZM-14050 -6533C-14056.6 -6533 -14062 -6527.63 -14062 -6521H-14042C-14042 -6516.58 -14045.6 -6513 -14050 -6513V-6533Z" fill="black"/>
</g>
<defs>
<filter id="filter0_d_25_2" x="-1361" y="-1961" width="1786" height="2406" filterUnits="userSpaceOnUse" color-interpolation-filters="sRGB">
<feFlood flood-opacity="0" result="BackgroundImageFix"/>
<feColorMatrix in="SourceAlpha" type="matrix" values="0 0 0 0 0 0 0 0 0 0 0 0 0 0 0 0 0 0 127 0" result="hardAlpha"/>
<feOffset dy="24"/>
<feGaussianBlur stdDeviation="22.5"/>
<feComposite in2="hardAlpha" operator="out"/>
<feColorMatrix type="matrix" values="0 0 0 0 0.0572 0 0 0 0 0.08888 0 0 0 0 0.1628 0 0 0 0.08 0"/>
<feBlend mode="normal" in2="BackgroundImageFix" result="effect1_dropShadow_25_2"/>
<feBlend mode="normal" in="SourceGraphic" in2="effect1_dropShadow_25_2" result="shape"/>
</filter>
<clipPath id="clip0_25_2">
<rect x="-4" width="32" height="124" rx="5" fill="white"/>
</clipPath>
</defs>
</svg>
