<svg width="40" height="40" viewBox="0 0 40 40" fill="none" xmlns="http://www.w3.org/2000/svg">
<rect width="40" height="40" fill="#A0AFB4"/>
<g id="Home page" clip-path="url(#clip0_0_1)">
<rect width="1440" height="2840" transform="translate(-83 -24)" fill="white"/>
<g id="Header" filter="url(#filter0_d_0_1)">
<rect width="1440" height="88" transform="translate(-83 -24)" fill="#FAFCFF"/>
<g id="Frame 375">
<g id="Logo">
<g id="icon-park-outline:drone">
<path id="Vector" d="M9.76756 10.0084C12.0436 12.2844 15.5957 15.8365 15.5957 15.8365M15.5957 15.8365H23.9215M15.5957 15.8365V24.1624M29.7496 29.9905L23.9215 24.1624M23.9215 24.1624V15.8365M23.9215 24.1624H15.5957M29.7496 10.0084L23.9215 15.8365M9.76756 29.9905L15.5957 24.1624M29.7496 15.8365C30.9023 15.8365 32.0291 15.4947 32.9875 14.8543C33.946 14.2139 34.693 13.3037 35.1341 12.2387C35.5752 11.1738 35.6906 10.0019 35.4657 8.8714C35.2409 7.74086 34.6858 6.70239 33.8707 5.88731C33.0556 5.07224 32.0172 4.51716 30.8866 4.29229C29.7561 4.06741 28.5842 4.18282 27.5193 4.62394C26.4544 5.06505 25.5441 5.81206 24.9037 6.77048C24.2633 7.72891 23.9215 8.85572 23.9215 10.0084M29.7496 24.1624C30.9023 24.1624 32.0291 24.5042 32.9875 25.1446C33.946 25.785 34.693 26.6952 35.1341 27.7602C35.5752 28.8251 35.6906 29.9969 35.4657 31.1275C35.2409 32.258 34.6858 33.2965 33.8707 34.1116C33.0556 34.9267 32.0172 35.4817 30.8866 35.7066C29.7561 35.9315 28.5842 35.8161 27.5193 35.3749C26.4544 34.9338 25.5441 34.1868 24.9037 33.2284C24.2633 32.27 23.9215 31.1432 23.9215 29.9905M9.76756 24.1624C8.61487 24.1624 7.48806 24.5042 6.52964 25.1446C5.57121 25.785 4.82421 26.6952 4.38309 27.7602C3.94198 28.8251 3.82656 29.9969 4.05144 31.1275C4.27632 32.258 4.83139 33.2965 5.64647 34.1116C6.46154 34.9267 7.50001 35.4817 8.63055 35.7066C9.76109 35.9315 10.9329 35.8161 11.9979 35.3749C13.0628 34.9338 13.973 34.1868 14.6134 33.2284C15.2538 32.27 15.5957 31.1432 15.5957 29.9905M9.76756 15.8365C8.61487 15.8365 7.48806 15.4947 6.52964 14.8543C5.57121 14.2139 4.82421 13.3037 4.38309 12.2387C3.94198 11.1738 3.82656 10.0019 4.05144 8.8714C4.27632 7.74086 4.83139 6.70239 5.64647 5.88731C6.46154 5.07224 7.50001 4.51716 8.63055 4.29229C9.76109 4.06741 10.9329 4.18282 11.9979 4.62394C13.0628 5.06505 13.973 5.81206 14.6134 6.77048C15.2538 7.72891 15.5957 8.85572 15.5957 10.0084" stroke="#1D1F36" stroke-width="2.49776" stroke-linecap="round" stroke-linejoin="round"/>
</g>
</g>
</g>
</g>
</g>
<defs>
<filter id="filter0_d_0_1" x="-120" y="-63" width="1520" height="168" filterUnits="userSpaceOnUse" color-interpolation-filters="sRGB">
<feFlood flood-opacity="0" result="BackgroundImageFix"/>
<feColorMatrix in="SourceAlpha" type="matrix" values="0 0 0 0 0 0 0 0 0 0 0 0 0 0 0 0 0 0 127 0" result="hardAlpha"/>
<feOffset dx="3" dy="1"/>
<feGaussianBlur stdDeviation="20"/>
<feComposite in2="hardAlpha" operator="out"/>
<feColorMatrix type="matrix" values="0 0 0 0 0.733333 0 0 0 0 0.76 0 0 0 0 0.866667 0 0 0 0.1 0"/>
<feBlend mode="normal" in2="BackgroundImageFix" result="effect1_dropShadow_0_1"/>
<feBlend mode="normal" in="SourceGraphic" in2="effect1_dropShadow_0_1" result="shape"/>
</filter>
<clipPath id="clip0_0_1">
<rect width="1440" height="2840" fill="white" transform="translate(-83 -24)"/>
</clipPath>
</defs>
</svg>
