<svg style="display: none">
  <symbol id="icon-search" width="24" height="24" viewBox="0 0 24 24" fill="none" xmlns="http://www.w3.org/2000/svg">
    <g id="heroicons-outline/magnifying-glass">
      <path id="Vector" d="M21 21L15.8033 15.8033M15.8033 15.8033C17.1605 14.4461 18 12.5711 18 10.5C18 6.35786 14.6421 3 10.5 3C6.35786 3 3 6.35786 3 10.5C3 14.6421 6.35786 18 10.5 18C12.5711 18 14.4461 17.1605 15.8033 15.8033Z" stroke="inherit" stroke-width="1.5" stroke-linecap="round" stroke-linejoin="round" />
    </g>
  </symbol>

  <symbol id="icon-user" width="24" height="24" viewBox="0 0 24 24" fill="none" xmlns="http://www.w3.org/2000/svg">
    <rect width="24" height="24" fill="inherit"/>
    <g id="Home page" clip-path="url(#clip0_0_1)">
      <rect width="1440" height="2840" transform="translate(-1190 -32)" fill="white"/>
      <g id="Header">
        <rect width="1276" height="88" transform="translate(-1108 -32)" fill="none"/>
        <g id="Frame 310">
          <g id="Icon / User">
            <g id="heroicons-outline/user">
              <g id="Vector">
              <path d="M15.75 6C15.75 8.07107 14.0711 9.75 12 9.75C9.92893 9.75 8.24999 8.07107 8.24999 6C8.24999 3.92893 9.92893 2.25 12 2.25C14.0711 2.25 15.75 3.92893 15.75 6Z" stroke="inherit" stroke-width="1.5" stroke-linecap="round" stroke-linejoin="round"/>
              <path d="M4.50113 20.1182C4.57143 16.0369 7.90187 12.75 12 12.75C16.0982 12.75 19.4287 16.0371 19.4989 20.1185C17.2161 21.166 14.6764 21.75 12.0003 21.75C9.32399 21.75 6.78409 21.1659 4.50113 20.1182Z" stroke="inherit" stroke-width="1.5" stroke-linecap="round" stroke-linejoin="round"/>
              </g>
            </g>
          </g>
        </g>
      </g>
    </g>
    <defs>
    <clipPath id="clip0_0_1">
      <rect width="1440" height="2840" fill="white" transform="translate(-1190 -32)"/>
    </clipPath>
    </defs>
</symbol>

<symbol id="icon-favorite" width="24" height="24" viewBox="0 0 24 24" fill="none" xmlns="http://www.w3.org/2000/svg">
  <g id="heroicons-outline/heart">
    <path id="Vector" d="M21 8.25C21 5.76472 18.9013 3.75 16.3125 3.75C14.3769 3.75 12.7153 4.87628 12 6.48342C11.2847 4.87628 9.62312 3.75 7.6875 3.75C5.09867 3.75 3 5.76472 3 8.25C3 15.4706 12 20.25 12 20.25C12 20.25 21 15.4706 21 8.25Z" stroke="inherit" stroke-width="1.5" stroke-linecap="round" stroke-linejoin="round"/>
  </g>
</symbol>

<symbol id="icon-cart" width="24" height="24" viewBox="0 0 24 24" fill="none" xmlns="http://www.w3.org/2000/svg">
  <rect width="24" height="24" fill="#F5F5F5"/>
  <g id="Home page" clip-path="url(#clip0_0_1)">
    <rect width="1440" height="2840" transform="translate(-1302 -32)" fill="white"/>
    <g id="Header">
      <rect width="1276" height="88" transform="translate(-1220 -32)" fill="inherit"/>
      <g id="Frame 310">
        <g id="Frame 369">
          <g id="heroicons-outline/shopping-cart">
            <path id="Vector" d="M2.25 3H3.63568C4.14537 3 4.59138 3.34265 4.7227 3.83513L5.1059 5.27209M7.5 14.25C5.84315 14.25 4.5 15.5931 4.5 17.25H20.25M7.5 14.25H18.7183C19.8394 11.9494 20.8177 9.56635 21.6417 7.1125C16.88 5.89646 11.8905 5.25 6.75 5.25C6.20021 5.25 5.65214 5.2574 5.1059 5.27209M7.5 14.25L5.1059 5.27209M6 20.25C6 20.6642 5.66421 21 5.25 21C4.83579 21 4.5 20.6642 4.5 20.25C4.5 19.8358 4.83579 19.5 5.25 19.5C5.66421 19.5 6 19.8358 6 20.25ZM18.75 20.25C18.75 20.6642 18.4142 21 18 21C17.5858 21 17.25 20.6642 17.25 20.25C17.25 19.8358 17.5858 19.5 18 19.5C18.4142 19.5 18.75 19.8358 18.75 20.25Z" stroke="inherit" stroke-width="1.5" stroke-linecap="round" stroke-linejoin="round"/>
          </g>
        </g>
      </g>
    </g>
  </g>
  <defs>
  <clipPath id="clip0_0_1">
    <rect width="1440" height="2840" fill="white" transform="translate(-1302 -32)"/>
  </clipPath>
  </defs>
</symbol>

<symbol id="icon-instagram" width="24" height="24" viewBox="0 0 24 24" fill="none" xmlns="http://www.w3.org/2000/svg" xmlns:xlink="http://www.w3.org/1999/xlink">
  <rect width="24" height="24" fill="url(#pattern0)"/>
  <defs>
  <pattern id="pattern0" patternContentUnits="objectBoundingBox" width="1" height="1">
    <use xlink:href="#image0_904_3311" transform="scale(0.00125)"/>
  </pattern>
  </defs>
</symbol>

<symbol id="icon-twitter" width="24" height="22" viewBox="0 0 24 22" fill="none" xmlns="http://www.w3.org/2000/svg" xmlns:xlink="http://www.w3.org/1999/xlink">
  <rect y="0.125" width="24" height="21.75" fill="url(#pattern0)"/>
  <defs>
    <pattern id="pattern0" patternContentUnits="objectBoundingBox" width="1" height="1">
      <use xlink:href="#image0_904_3312" transform="matrix(0.00125346 0 0 0.00138313 -0.00138313 0)"/>
    </pattern>
  </defs>
</symbol>

<symbol id="icon-facebook" width="24" height="24" viewBox="0 0 24 24" fill="none" xmlns="http://www.w3.org/2000/svg" xmlns:xlink="http://www.w3.org/1999/xlink">
  <rect width="24" height="24" fill="url(#pattern0)"/>
  <defs>
    <pattern id="pattern0" patternContentUnits="objectBoundingBox" width="1" height="1">
      <use xlink:href="#image0_904_3313" transform="scale(0.00125)"/>
    </pattern>
  </defs>
</symbol>




</svg>