<svg style="display: none">
  <symbol id="icon-search" viewBox="0 0 24 24" fill="none" xmlns="http://www.w3.org/2000/svg">
    <g id="heroicons-outline/magnifying-glass">
      <path id="Vector" d="M21 21L15.8033 15.8033M15.8033 15.8033C17.1605 14.4461 18 12.5711 18 10.5C18 6.35786 14.6421 3 10.5 3C6.35786 3 3 6.35786 3 10.5C3 14.6421 6.35786 18 10.5 18C12.5711 18 14.4461 17.1605 15.8033 15.8033Z" stroke="inherit" stroke-width="1.5" stroke-linecap="round" stroke-linejoin="round" />
    </g>
  </symbol>

  <symbol id="icon-user" viewBox="0 0 24 24" fill="none" xmlns="http://www.w3.org/2000/svg">
    <g id="Home page" clip-path="url(#clip0_0_1)">
      <rect width="1440" height="2840" transform="translate(-1190 -32)" fill="inherit"/>
      <g id="Header">
        <rect width="1276" height="88" transform="translate(-1108 -32)" fill="none"/>
        <g id="Frame 310">
          <g id="Icon / User">
            <g id="heroicons-outline/user">
              <g id="Vector">
              <path d="M15.75 6C15.75 8.07107 14.0711 9.75 12 9.75C9.92893 9.75 8.24999 8.07107 8.24999 6C8.24999 3.92893 9.92893 2.25 12 2.25C14.0711 2.25 15.75 3.92893 15.75 6Z" stroke="inherit" stroke-width="1.5" stroke-linecap="round" stroke-linejoin="round"/>
              <path d="M4.50113 20.1182C4.57143 16.0369 7.90187 12.75 12 12.75C16.0982 12.75 19.4287 16.0371 19.4989 20.1185C17.2161 21.166 14.6764 21.75 12.0003 21.75C9.32399 21.75 6.78409 21.1659 4.50113 20.1182Z" stroke="inherit" stroke-width="1.5" stroke-linecap="round" stroke-linejoin="round"/>
              </g>
            </g>
          </g>
        </g>
      </g>
    </g>
    <defs>
    <clipPath id="clip0_0_1">
      <rect width="1440" height="2840" fill="white" transform="translate(-1190 -32)"/>
    </clipPath>
    </defs>
</symbol>

<symbol id="icon-favorite" viewBox="0 0 24 24" fill="none" xmlns="http://www.w3.org/2000/svg">
  <g id="heroicons-outline/heart">
    <path id="Vector" d="M21 8.25C21 5.76472 18.9013 3.75 16.3125 3.75C14.3769 3.75 12.7153 4.87628 12 6.48342C11.2847 4.87628 9.62312 3.75 7.6875 3.75C5.09867 3.75 3 5.76472 3 8.25C3 15.4706 12 20.25 12 20.25C12 20.25 21 15.4706 21 8.25Z" stroke="inherit" stroke-width="1.5" stroke-linecap="round" stroke-linejoin="round"/>
  </g>
</symbol>

<!-- <symbol id="icon-cart" viewBox="0 0 41 41" fill="none" xmlns="http://www.w3.org/2000/svg">
<path d="M10.75 11.1904H12.1357C12.6454 11.1904 13.0914 11.5331 13.2227 12.0256L13.6059 13.4625M16 22.4404C14.3431 22.4404 13 23.7836 13 25.4404H28.75M16 22.4404H27.2183C28.3394 20.1398 29.3177 17.7568 30.1417 15.3029C25.38 14.0869 20.3905 13.4404 15.25 13.4404C14.7002 13.4404 14.1521 13.4478 13.6059 13.4625M16 22.4404L13.6059 13.4625M14.5 28.4404C14.5 28.8546 14.1642 29.1904 13.75 29.1904C13.3358 29.1904 13 28.8546 13 28.4404C13 28.0262 13.3358 27.6904 13.75 27.6904C14.1642 27.6904 14.5 28.0262 14.5 28.4404ZM27.25 28.4404C27.25 28.8546 26.9142 29.1904 26.5 29.1904C26.0858 29.1904 25.75 28.8546 25.75 28.4404C25.75 28.0262 26.0858 27.6904 26.5 27.6904C26.9142 27.6904 27.25 28.0262 27.25 28.4404Z" stroke="#1D1F36" stroke-width="1.5" stroke-linecap="round" stroke-linejoin="round"/>
</symbol> -->


<!-- <symbol id="icon-cart" viewBox="0 0 24 24" fill="none" xmlns="http://www.w3.org/2000/svg">
  <g id="Home page" clip-path="url(#clip0_0_1)">
    <rect width="1440" height="2840" transform="translate(-1302 -32)" fill="inherit"/>
    <g id="Header">
      <rect width="1276" height="88" transform="translate(-1220 -32)" fill="inherit"/>
      <g id="Frame 310">
        <g id="Frame 369">
          <g id="heroicons-outline/shopping-cart">
            <path id="Vector" d="M2.25 3H3.63568C4.14537 3 4.59138 3.34265 4.7227 3.83513L5.1059 5.27209M7.5 14.25C5.84315 14.25 4.5 15.5931 4.5 17.25H20.25M7.5 14.25H18.7183C19.8394 11.9494 20.8177 9.56635 21.6417 7.1125C16.88 5.89646 11.8905 5.25 6.75 5.25C6.20021 5.25 5.65214 5.2574 5.1059 5.27209M7.5 14.25L5.1059 5.27209M6 20.25C6 20.6642 5.66421 21 5.25 21C4.83579 21 4.5 20.6642 4.5 20.25C4.5 19.8358 4.83579 19.5 5.25 19.5C5.66421 19.5 6 19.8358 6 20.25ZM18.75 20.25C18.75 20.6642 18.4142 21 18 21C17.5858 21 17.25 20.6642 17.25 20.25C17.25 19.8358 17.5858 19.5 18 19.5C18.4142 19.5 18.75 19.8358 18.75 20.25Z" stroke="inherit" stroke-width="1.5" stroke-linecap="round" stroke-linejoin="round"/>
          </g>
        </g>
      </g>
    </g>
  </g>
  <defs>
  <clipPath id="clip0_0_1">
    <rect width="1440" height="2840" fill="inherit" transform="translate(-1302 -32)"/>
  </clipPath>
  </defs>
</symbol> -->

<svg id="icon-cart" xmlns="http://www.w3.org/2000/svg" width="24" height="24" viewBox="0 0 24 24" fill="none">
  <path d="M2.25 3H3.63568C4.14537 3 4.59138 3.34265 4.7227 3.83513L5.1059 5.27209M7.5 14.25C5.84315 14.25 4.5 15.5931 4.5 17.25H20.25M7.5 14.25H18.7183C19.8394 11.9494 20.8177 9.56635 21.6417 7.1125C16.88 5.89646 11.8905 5.25 6.75 5.25C6.20021 5.25 5.65214 5.2574 5.1059 5.27209M7.5 14.25L5.1059 5.27209M6 20.25C6 20.6642 5.66421 21 5.25 21C4.83579 21 4.5 20.6642 4.5 20.25C4.5 19.8358 4.83579 19.5 5.25 19.5C5.66421 19.5 6 19.8358 6 20.25ZM18.75 20.25C18.75 20.6642 18.4142 21 18 21C17.5858 21 17.25 20.6642 17.25 20.25C17.25 19.8358 17.5858 19.5 18 19.5C18.4142 19.5 18.75 19.8358 18.75 20.25Z" stroke="inherit" stroke-width="1.5" stroke-linecap="round" stroke-linejoin="round"/>
</svg>

<symbol id="icon-instagram" width="24" height="24" viewBox="0 0 24 24" fill="none" xmlns="http://www.w3.org/2000/svg" xmlns:xlink="http://www.w3.org/1999/xlink">
  <rect width="24" height="24" fill="url(#pattern0)"/>
  <defs>
  <pattern id="pattern0" patternContentUnits="objectBoundingBox" width="1" height="1">
    <use xlink:href="#image0_904_3311" transform="scale(0.00125)"/>
  </pattern>
  </defs>
</symbol>

<symbol id="icon-twitter" width="24" height="22" viewBox="0 0 24 22" fill="none" xmlns="http://www.w3.org/2000/svg" xmlns:xlink="http://www.w3.org/1999/xlink">
  <rect y="0.125" width="24" height="21.75" fill="url(#pattern0)"/>
  <defs>
    <pattern id="pattern0" patternContentUnits="objectBoundingBox" width="1" height="1">
      <use xlink:href="#image0_904_3312" transform="matrix(0.00125346 0 0 0.00138313 -0.00138313 0)"/>
    </pattern>
  </defs>
</symbol>

<symbol id="icon-facebook" width="24" height="24" viewBox="0 0 24 24" fill="none" xmlns="http://www.w3.org/2000/svg" xmlns:xlink="http://www.w3.org/1999/xlink">
  <rect width="24" height="24" fill="url(#pattern0)"/>
  <defs>
    <pattern id="pattern0" patternContentUnits="objectBoundingBox" width="1" height="1">
      <use xlink:href="#image0_904_3313" transform="scale(0.00125)"/>
    </pattern>
  </defs>
</symbol>

<symbol id="icon-burger" width="32" height="32" viewBox="0 0 32 32" fill="none" xmlns="http://www.w3.org/2000/svg">
  <path d="M5 9H27M5 16H27M5 23H27" stroke="#1D1F36" stroke-width="2" stroke-linecap="round" stroke-linejoin="round"/>
</symbol>

<symbol id="icon-home" viewBox="0 0 24 24" fill="none" xmlns="http://www.w3.org/2000/svg">
  <path d="M2.25 12L11.2045 3.04551C11.6438 2.60617 12.3562 2.60617 12.7955 3.04551L21.75 12M4.5 9.75001V19.875C4.5 20.4963 5.00368 21 5.625 21H9.75V16.125C9.75 15.5037 10.2537 15 10.875 15H13.125C13.7463 15 14.25 15.5037 14.25 16.125V21H18.375C18.9963 21 19.5 20.4963 19.5 19.875V9.75001M8.25 21H16.5" stroke="inherit" stroke-width="1.5" stroke-linecap="round" stroke-linejoin="round"/>
</symbol>

<symbol id="icon-chevron-down" viewBox="0 0 24 24" fill="none" xmlns="http://www.w3.org/2000/svg">
  <path d="M19.5 8.25L12 15.75L4.5 8.25" stroke="inherit" stroke-width="1.5" stroke-linecap="round" stroke-linejoin="round"/>
</symbol>

<symbol id="icon-chevron-right" viewBox="0 0 16 16" fill="none" xmlns="http://www.w3.org/2000/svg">
  <path d="M5.5 3L10.5 8L5.5 13" stroke="inherit" stroke-width="1.5" stroke-linecap="round" stroke-linejoin="round"/>
</symbol>


<symbol id="icon-reset" viewBox="0 0 32 32" fill="none" xmlns="http://www.w3.org/2000/svg">
  <path d="M8 24L24 8M8 8L24 24" stroke="inherit" stroke-width="inherit" stroke-linecap="round" stroke-linejoin="round"/>
</symbol>

<symbol id="icon-drones" viewBox="0 0 24 24" fill="inherit" xmlns="http://www.w3.org/2000/svg">
  <path d="M5.25 9C4.50832 9 3.7833 8.78007 3.16661 8.36801C2.54993 7.95596 2.06928 7.37029 1.78545 6.68506C1.50162 5.99984 1.42736 5.24584 1.57206 4.51841C1.71675 3.79098 2.0739 3.1228 2.59835 2.59835C3.1228 2.0739 3.79098 1.71675 4.51841 1.57206C5.24584 1.42736 5.99984 1.50162 6.68506 1.78545C7.37029 2.06928 7.95596 2.54993 8.36801 3.16661C8.78007 3.7833 9 4.50832 9 5.25H7.5C7.5 4.80499 7.36804 4.36998 7.12081 3.99997C6.87358 3.62996 6.52217 3.34157 6.11104 3.17127C5.69991 3.00098 5.24751 2.95642 4.81105 3.04323C4.37459 3.13005 3.97368 3.34434 3.65901 3.65901C3.34434 3.97368 3.13005 4.37459 3.04323 4.81105C2.95642 5.24751 3.00098 5.69991 3.17127 6.11104C3.34157 6.52217 3.62996 6.87358 3.99997 7.12081C4.36998 7.36804 4.80499 7.5 5.25 7.5V9ZM18.75 9V7.5C19.195 7.5 19.63 7.36804 20 7.12081C20.37 6.87358 20.6584 6.52217 20.8287 6.11104C20.999 5.69991 21.0436 5.24751 20.9568 4.81105C20.87 4.37459 20.6557 3.97368 20.341 3.65901C20.0263 3.34434 19.6254 3.13005 19.189 3.04323C18.7525 2.95642 18.3001 3.00098 17.889 3.17127C17.4778 3.34157 17.1264 3.62996 16.8792 3.99997C16.632 4.36998 16.5 4.80499 16.5 5.25H15C15 4.50832 15.2199 3.7833 15.632 3.16661C16.044 2.54993 16.6297 2.06928 17.3149 1.78545C18.0002 1.50162 18.7542 1.42736 19.4816 1.57206C20.209 1.71675 20.8772 2.0739 21.4017 2.59835C21.9261 3.1228 22.2833 3.79098 22.4279 4.51841C22.5726 5.24584 22.4984 5.99984 22.2146 6.68506C21.9307 7.37029 21.4501 7.95596 20.8334 8.36801C20.2167 8.78007 19.4917 9 18.75 9ZM5.25 22.5C4.25544 22.5 3.30161 22.1049 2.59835 21.4017C1.89509 20.6984 1.5 19.7446 1.5 18.75C1.5 17.7554 1.89509 16.8016 2.59835 16.0984C3.30161 15.3951 4.25544 15 5.25 15V16.5C4.80499 16.5 4.36998 16.632 3.99997 16.8792C3.62996 17.1264 3.34157 17.4778 3.17127 17.889C3.00098 18.3001 2.95642 18.7525 3.04323 19.189C3.13005 19.6254 3.34434 20.0263 3.65901 20.341C3.97368 20.6557 4.37459 20.87 4.81105 20.9568C5.24751 21.0436 5.69991 20.999 6.11104 20.8287C6.52217 20.6584 6.87358 20.37 7.12081 20C7.36804 19.63 7.5 19.195 7.5 18.75H9C8.99901 19.7443 8.6036 20.6975 7.90056 21.4006C7.19751 22.1036 6.24426 22.499 5.25 22.5ZM18.75 22.5C17.7557 22.499 16.8025 22.1036 16.0994 21.4006C15.3964 20.6975 15.001 19.7443 15 18.75H16.5C16.5 19.195 16.632 19.63 16.8792 20C17.1264 20.37 17.4778 20.6584 17.889 20.8287C18.3001 20.999 18.7525 21.0436 19.189 20.9568C19.6254 20.87 20.0263 20.6557 20.341 20.341C20.6557 20.0263 20.87 19.6254 20.9568 19.189C21.0436 18.7525 20.999 18.3001 20.8287 17.889C20.6584 17.4778 20.37 17.1264 20 16.8792C19.63 16.632 19.195 16.5 18.75 16.5V15C19.7446 15 20.6984 15.3951 21.4017 16.0984C22.1049 16.8016 22.5 17.7554 22.5 18.75C22.5 19.7446 22.1049 20.6984 21.4017 21.4017C20.6984 22.1049 19.7446 22.5 18.75 22.5Z" fill="inherit"/>
  <path d="M15 13.9399V10.0609L19.2802 5.78068C19.3518 5.71149 19.409 5.62873 19.4483 5.53723C19.4876 5.44573 19.5083 5.34731 19.5091 5.24773C19.51 5.14814 19.491 5.04938 19.4533 4.95721C19.4156 4.86504 19.3599 4.7813 19.2895 4.71088C19.2191 4.64046 19.1353 4.58477 19.0432 4.54706C18.951 4.50935 18.8522 4.49037 18.7527 4.49124C18.6531 4.4921 18.5547 4.51279 18.4632 4.5521C18.3717 4.59141 18.2889 4.64854 18.2197 4.72018L14.8447 8.09518C14.6558 7.48831 14.2778 6.95774 13.766 6.58096C13.2541 6.20419 12.6352 6.00096 11.9996 6.00096C11.364 6.00096 10.7451 6.20419 10.2332 6.58096C9.72133 6.95774 9.34335 7.48831 9.15446 8.09518L5.78021 4.72018C5.63957 4.57957 5.44883 4.50059 5.24996 4.50059C5.05109 4.50059 4.86036 4.57957 4.71971 4.72018C4.57911 4.86082 4.50012 5.05155 4.50012 5.25043C4.50012 5.4493 4.57911 5.64003 4.71971 5.78068L8.99996 10.0609V13.9399L4.71971 18.2202C4.57911 18.3608 4.50012 18.5516 4.50012 18.7504C4.50012 18.9493 4.57911 19.14 4.71971 19.2807C4.86036 19.4213 5.05109 19.5003 5.24996 19.5003C5.44883 19.5003 5.63957 19.4213 5.78021 19.2807L9.15521 15.9057C9.3441 16.5125 9.72208 17.0431 10.234 17.4199C10.7458 17.7967 11.3648 17.9999 12.0003 17.9999C12.6359 17.9999 13.2549 17.7967 13.7667 17.4199C14.2786 17.0431 14.6566 16.5125 14.8455 15.9057L18.2205 19.2807C18.3619 19.4173 18.5514 19.4929 18.748 19.4912C18.9447 19.4895 19.1328 19.4106 19.2718 19.2715C19.4109 19.1325 19.4898 18.9444 19.4915 18.7477C19.4932 18.5511 19.4176 18.3616 19.281 18.2202L15 13.9399ZM13.5 15.0004C13.5 15.3983 13.3419 15.7798 13.0606 16.0611C12.7793 16.3424 12.3978 16.5004 12 16.5004C11.6021 16.5004 11.2206 16.3424 10.9393 16.0611C10.658 15.7798 10.5 15.3983 10.5 15.0004V9.00043C10.5 8.6026 10.658 8.22107 10.9393 7.93977C11.2206 7.65846 11.6021 7.50043 12 7.50043C12.3978 7.50043 12.7793 7.65846 13.0606 7.93977C13.3419 8.22107 13.5 8.6026 13.5 9.00043V15.0004Z" fill="inherit"/>
</symbol>

<symbol id="icon-accessories" viewBox="0 0 24 24" fill="inherit" xmlns="http://www.w3.org/2000/svg">
  <path fill-rule="evenodd" clip-rule="evenodd" d="M5.65804 3.454C6.16404 3.274 6.67804 3.25 7.10304 3.25H7.71504C8.74804 3.25 9.75503 3.57 10.598 4.167L11.1 4.522C11.3632 4.70823 11.6776 4.80824 12 4.80824C12.3224 4.80824 12.6369 4.70823 12.9 4.522L13.402 4.167C14.245 3.57036 15.2523 3.24997 16.285 3.25H16.897C17.323 3.25 17.837 3.274 18.342 3.454C19.785 3.966 20.926 5.142 21.678 7.045C22.422 8.929 22.804 11.565 22.744 15.115C22.731 15.865 22.638 16.705 22.349 17.461C22.058 18.228 21.547 18.951 20.689 19.361C20.1536 19.618 19.567 19.751 18.973 19.75C18.2846 19.759 17.609 19.5641 17.031 19.19C16.559 18.88 16.146 18.48 15.793 18.138C15.7508 18.0973 15.7084 18.0566 15.666 18.016C15.262 17.626 14.921 17.323 14.543 17.126C14.0662 16.879 13.537 16.75 13 16.75H11C10.4626 16.7504 9.93315 16.8797 9.45604 17.127C9.07804 17.323 8.73704 17.627 8.33304 18.017L8.20604 18.139C7.85304 18.48 7.44004 18.881 6.96804 19.191C6.39 19.5648 5.71433 19.7593 5.02604 19.75C4.43199 19.7507 3.84543 19.6174 3.31004 19.36C2.45104 18.95 1.94104 18.228 1.65004 17.461C1.36104 16.705 1.26804 15.865 1.25504 15.115C1.19504 11.565 1.57704 8.929 2.32104 7.045C3.07304 5.142 4.21504 3.965 5.65804 3.454ZM7.10304 4.75C6.71904 4.75 6.41604 4.777 6.16004 4.867C5.22004 5.201 4.35104 5.992 3.71704 7.597C3.07604 9.22 2.69704 11.633 2.75604 15.09C2.76704 15.752 2.85104 16.398 3.05204 16.927C3.25004 17.447 3.54204 17.809 3.95804 18.007C4.29132 18.168 4.65688 18.2511 5.02704 18.25C5.51204 18.25 5.87504 18.114 6.14704 17.936C6.49203 17.709 6.80004 17.413 7.16904 17.056L7.29304 16.936C7.69404 16.55 8.17304 16.102 8.76604 15.796C9.45653 15.4376 10.2231 15.2503 11.001 15.25H13C13.778 15.25 14.544 15.437 15.235 15.795C15.827 16.102 16.307 16.55 16.708 16.935L16.832 17.055C17.202 17.413 17.509 17.709 17.855 17.935C18.126 18.114 18.489 18.25 18.975 18.25C19.382 18.25 19.737 18.154 20.043 18.008C20.459 17.808 20.751 17.447 20.949 16.928C21.15 16.398 21.234 15.752 21.245 15.09C21.303 11.633 20.925 9.22 20.284 7.596C19.65 5.992 18.781 5.201 17.841 4.867C17.585 4.777 17.281 4.75 16.898 4.75H16.286C15.564 4.75 14.859 4.974 14.269 5.391L13.767 5.747C13.2507 6.11245 12.6336 6.30871 12.001 6.30871C11.3684 6.30871 10.7514 6.11245 10.235 5.747L9.73304 5.391C9.14323 4.97377 8.4385 4.74981 7.71604 4.75H7.10304ZM7.50004 8.25C7.69895 8.25 7.88971 8.32902 8.03036 8.46967C8.17102 8.61032 8.25004 8.80109 8.25004 9V9.75H9.00004C9.19895 9.75 9.38971 9.82902 9.53036 9.96967C9.67102 10.1103 9.75004 10.3011 9.75004 10.5C9.75004 10.6989 9.67102 10.8897 9.53036 11.0303C9.38971 11.171 9.19895 11.25 9.00004 11.25H8.25004V12C8.25004 12.1989 8.17102 12.3897 8.03036 12.5303C7.88971 12.671 7.69895 12.75 7.50004 12.75C7.30112 12.75 7.11036 12.671 6.96971 12.5303C6.82905 12.3897 6.75004 12.1989 6.75004 12V11.25H6.00004C5.80112 11.25 5.61036 11.171 5.46971 11.0303C5.32905 10.8897 5.25004 10.6989 5.25004 10.5C5.25004 10.3011 5.32905 10.1103 5.46971 9.96967C5.61036 9.82902 5.80112 9.75 6.00004 9.75H6.75004V9C6.75004 8.80109 6.82905 8.61032 6.96971 8.46967C7.11036 8.32902 7.30112 8.25 7.50004 8.25Z" fill="inherit"/>
  <path d="M19 10.25C19 10.4489 18.921 10.6397 18.7803 10.7803C18.6397 10.921 18.4489 11 18.25 11C18.0511 11 17.8603 10.921 17.7197 10.7803C17.579 10.6397 17.5 10.4489 17.5 10.25C17.5 10.0511 17.579 9.86032 17.7197 9.71967C17.8603 9.57902 18.0511 9.5 18.25 9.5C18.4489 9.5 18.6397 9.57902 18.7803 9.71967C18.921 9.86032 19 10.0511 19 10.25ZM16 10.25C16 10.4489 15.921 10.6397 15.7803 10.7803C15.6397 10.921 15.4489 11 15.25 11C15.0511 11 14.8603 10.921 14.7197 10.7803C14.579 10.6397 14.5 10.4489 14.5 10.25C14.5 10.0511 14.579 9.86032 14.7197 9.71967C14.8603 9.57902 15.0511 9.5 15.25 9.5C15.4489 9.5 15.6397 9.57902 15.7803 9.71967C15.921 9.86032 16 10.0511 16 10.25ZM16.75 8C16.9489 8 17.1397 8.07902 17.2803 8.21967C17.421 8.36032 17.5 8.55109 17.5 8.75C17.5 8.94891 17.421 9.13968 17.2803 9.28033C17.1397 9.42098 16.9489 9.5 16.75 9.5C16.5511 9.5 16.3603 9.42098 16.2197 9.28033C16.079 9.13968 16 8.94891 16 8.75C16 8.55109 16.079 8.36032 16.2197 8.21967C16.3603 8.07902 16.5511 8 16.75 8ZM16.75 11C16.8485 11 16.946 11.0194 17.037 11.0571C17.128 11.0948 17.2107 11.15 17.2803 11.2197C17.35 11.2893 17.4052 11.372 17.4429 11.463C17.4806 11.554 17.5 11.6515 17.5 11.75C17.5 11.8485 17.4806 11.946 17.4429 12.037C17.4052 12.128 17.35 12.2107 17.2803 12.2803C17.2107 12.35 17.128 12.4052 17.037 12.4429C16.946 12.4806 16.8485 12.5 16.75 12.5C16.5511 12.5 16.3603 12.421 16.2197 12.2803C16.079 12.1397 16 11.9489 16 11.75C16 11.5511 16.079 11.3603 16.2197 11.2197C16.3603 11.079 16.5511 11 16.75 11Z" fill="inherit"/>
</symbol>

<symbol id="icon-parts" viewBox="0 0 24 24" fill="inherit" xmlns="http://www.w3.org/2000/svg">
  <path d="M2.28621 0L1.77136 0.485769L0.485592 1.77201L0 2.28705L0.371281 2.88717L2.28621 6.08904L2.54319 6.54645H5.23086L8.8888 10.1774C5.62043 13.4616 1.46226 17.635 1.31595 17.7823C-0.117054 19.2149 -0.119798 21.5623 1.34338 22.9281C2.77272 24.3388 5.10192 24.3754 6.45993 22.9281L6.48736 22.8988L12.1169 17.2389L17.7758 22.9272L17.8608 22.9848C19.2966 24.3388 21.58 24.3571 22.9198 22.9272V22.8998H22.9472C24.3482 21.4662 24.3628 19.1362 22.9198 17.7813L22.8905 17.7539L18.1187 13.0078C21.3295 12.7078 23.8443 9.99532 23.8909 6.71843H23.9193C23.923 6.70014 23.9193 6.6791 23.9193 6.6608V6.63244C24.0089 5.57491 23.7803 4.56312 23.2334 3.68764L22.6061 2.71701L18.3473 6.97641L17.0616 5.63254L21.4054 1.28715L20.148 0.773023C19.3459 0.420031 18.4801 0.234799 17.6039 0.228705C14.0886 0.228705 11.2025 3.11588 11.2025 6.63244C11.2025 7.01484 11.2848 7.34692 11.3451 7.68997C10.9455 8.09066 10.6455 8.41908 10.1737 8.89113L6.54406 5.26021V2.54411L6.08682 2.28705L2.88612 0.371417L2.28621 0ZM17.6039 2.05834C17.7319 2.05834 17.8215 2.13336 17.9468 2.14434L14.4891 5.60327L15.1174 6.26102L17.6898 8.91949L18.3181 9.57725L21.9477 5.94633C21.966 6.15674 22.1159 6.31043 22.0903 6.54645V6.63244C22.0903 9.15185 20.0364 11.2065 17.5179 11.2065C17.1823 11.2065 16.7753 11.1279 16.3181 11.0346L15.8316 10.9495L15.4886 11.2925L5.17325 21.641H5.14398V21.6702C4.4947 22.3811 3.35799 22.3984 2.6008 21.641V21.6126H2.57153C1.86098 20.9631 1.8436 19.826 2.6008 19.0685C2.94739 18.7209 9.6588 11.9494 12.9455 8.66243L13.3177 8.29101L13.1741 7.77597C13.0873 7.40072 13.0395 7.01751 13.0314 6.63244C13.0314 4.11303 15.0854 2.05834 17.6039 2.05834ZM2.57153 2.28705L4.71509 3.60256V4.51738L4.51573 4.71681H3.60125L2.28621 2.57339L2.57153 2.28705ZM15.9459 13.4076L21.634 19.0685V19.0969H21.6614C22.3729 19.7464 22.3903 20.8835 21.634 21.641H21.6047V21.6702C20.9554 22.3811 19.8187 22.3984 19.0615 21.641L13.4027 15.9526L15.9459 13.4076Z" fill="inherit"/>
</symbol>

<symbol id="icon-sets" viewBox="0 0 24 24" fill="inherit" xmlns="http://www.w3.org/2000/svg">
  <path fill-rule="evenodd" clip-rule="evenodd" d="M12 0C11.3247 0 10.7029 0.167442 10.0231 0.448744C9.36558 0.721116 8.60205 1.12186 7.65209 1.62084L5.34363 2.832C4.17712 3.44372 3.24502 3.93377 2.52279 4.41488C1.77712 4.91386 1.20112 5.43851 0.782512 6.14958C0.365023 6.85842 0.177488 7.62642 0.0870697 8.54065C-5.82185e-08 9.42809 0 10.5187 0 11.8917V12.1083C0 13.4813 -5.82185e-08 14.5719 0.0870697 15.4593C0.177488 16.3747 0.36614 17.1416 0.782512 17.8504C1.20112 18.5615 1.776 19.0861 2.52391 19.5851C3.24391 20.0662 4.17712 20.5563 5.34363 21.168L7.65209 22.3792C8.60205 22.8781 9.36558 23.2789 10.0231 23.5513C10.704 23.8326 11.3247 24 12 24C12.6753 24 13.2971 23.8326 13.9769 23.5513C14.6344 23.2789 15.398 22.8781 16.3479 22.3792L18.6564 21.1691C19.8229 20.5563 20.755 20.0662 21.4761 19.5851C22.224 19.0861 22.7989 18.5615 23.2175 17.8504C23.635 17.1416 23.8225 16.3736 23.9129 15.4593C24 14.5719 24 13.4813 24 12.1083V11.8917C24 10.5187 24 9.42809 23.9129 8.54065C23.8225 7.6253 23.6339 6.85842 23.2175 6.14958C22.7989 5.43851 22.224 4.91386 21.4761 4.41488C20.7561 3.93377 19.8229 3.44372 18.6564 2.832L16.3479 1.62084C15.398 1.12186 14.6344 0.721116 13.9769 0.448744C13.296 0.167442 12.6753 0 12 0ZM8.39442 3.12112C9.38791 2.59981 10.0845 2.23591 10.6627 1.99702C11.2253 1.76372 11.6216 1.67442 12 1.67442C12.3795 1.67442 12.7747 1.76372 13.3373 1.99702C13.9155 2.23591 14.611 2.59981 15.6045 3.12112L17.837 4.29321C19.0538 4.9306 19.9077 5.38047 20.5473 5.80688C20.8621 6.01786 21.1088 6.21321 21.3098 6.40967L17.5914 8.26828L8.10307 3.27405L8.39442 3.12112ZM6.35721 4.19051L6.16298 4.29321C4.94623 4.9306 4.09228 5.38047 3.45377 5.80688C3.18132 5.98351 2.92606 6.18532 2.69135 6.40967L12 11.0646L15.7473 9.18921L6.58716 4.36912C6.50066 4.32349 6.42282 4.26304 6.35721 4.19051ZM1.88428 7.87758C1.82847 8.11647 1.78493 8.38772 1.75367 8.70363C1.67554 9.50065 1.67442 10.5087 1.67442 11.9341V12.0647C1.67442 13.4913 1.67442 14.4993 1.75367 15.2953C1.8307 16.0733 1.97693 16.5767 2.22586 17.0009C2.47367 17.4218 2.832 17.7779 3.45377 18.1931C4.09228 18.6195 4.94623 19.0694 6.16298 19.7068L8.39554 20.8789C9.38902 21.4002 10.0845 21.7641 10.6627 22.003C10.8458 22.0789 11.0099 22.1392 11.1628 22.1872V12.5168L1.88428 7.87758ZM12.8372 22.186C12.9901 22.1392 13.1542 22.0789 13.3373 22.003C13.9155 21.7641 14.611 21.4002 15.6045 20.8789L17.837 19.7068C19.0538 19.0683 19.9077 18.6195 20.5473 18.1931C21.168 17.7779 21.5263 17.4218 21.7753 17.0009C22.0242 16.5767 22.1693 16.0744 22.2463 15.2953C22.3245 14.4993 22.3256 13.4913 22.3256 12.0659V11.9353C22.3256 10.5087 22.3256 9.50065 22.2463 8.70475C22.2212 8.4268 22.1776 8.15084 22.1157 7.8787L18.4186 9.72614V13.1163C18.4186 13.3383 18.3304 13.5513 18.1734 13.7083C18.0164 13.8653 17.8034 13.9535 17.5814 13.9535C17.3594 13.9535 17.1464 13.8653 16.9894 13.7083C16.8324 13.5513 16.7442 13.3383 16.7442 13.1163V10.5633L12.8372 12.5168V22.186Z" fill="inherit"/>
</symbol>

<symbol id="icon-cross" viewBox="0 0 32 32" fill="none" xmlns="http://www.w3.org/2000/svg">
  <path d="M8 24L24 8M8 8L24 24" stroke="inherir" stroke-width="1.5" stroke-linecap="round" stroke-linejoin="round"/>
</symbol>

<symbol id="icon-arrow-right" viewBox="0 0 32 32" fill="none" xmlns="http://www.w3.org/2000/svg">
  <path d="M6 16L26 16M26 16L17 7M26 16L17 25" stroke="inherit" stroke-width="1.5" stroke-linecap="round" stroke-linejoin="round"/>
</symbol>

<!-- <symbol id="icon-heart" viewBox="0 0 40 40" fill="inherit" xmlns="http://www.w3.org/2000/svg">
  <path d="M29 16.25C29 13.7647 26.9013 11.75 24.3125 11.75C22.3769 11.75 20.7153 12.8763 20 14.4834C19.2847 12.8763 17.6231 11.75 15.6875 11.75C13.0987 11.75 11 13.7647 11 16.25C11 23.4706 20 28.25 20 28.25C20 28.25 29 23.4706 29 16.25Z" stroke="inherit" stroke-width="1.5" stroke-linecap="round" stroke-linejoin="round"/>
</symbol> -->

<svg id="icon-heart" xmlns="http://www.w3.org/2000/svg" viewBox="0 0 32 32">
  <path d="M28 11C28 7.68629 25.2018 5 21.75 5C19.1692 5 16.9537 6.5017 16 8.64456C15.0463 6.5017 12.8308 5 10.25 5C6.79822 5 4 7.68629 4 11C4 20.6274 16 27 16 27C16 27 28 20.6274 28 11Z" stroke="inherit" stroke-width="2" stroke-linecap="round" stroke-linejoin="round"/>
</svg>

<symbol id="icon-heart-red" viewBox="0 0 40 41" fill="none" xmlns="http://www.w3.org/2000/svg">
  <path d="M29 16.4404C29 13.9551 26.9013 11.9404 24.3125 11.9404C22.3769 11.9404 20.7153 13.0667 20 14.6738C19.2847 13.0667 17.6231 11.9404 15.6875 11.9404C13.0987 11.9404 11 13.9551 11 16.4404C11 23.661 20 28.4404 20 28.4404C20 28.4404 29 23.661 29 16.4404Z" fill="inherit"/>
</symbol>

<symbol id="icon-shopping-cart" viewBox="0 0 24 24" fill="none" xmlns="http://www.w3.org/2000/svg">
  <path d="M2.25 3H3.63568C4.14537 3 4.59138 3.34265 4.7227 3.83513L5.1059 5.27209M7.5 14.25C5.84315 14.25 4.5 15.5931 4.5 17.25H20.25M7.5 14.25H18.7183C19.8394 11.9494 20.8177 9.56635 21.6417 7.1125C16.88 5.89646 11.8905 5.25 6.75 5.25C6.20021 5.25 5.65214 5.2574 5.1059 5.27209M7.5 14.25L5.1059 5.27209M6 20.25C6 20.6642 5.66421 21 5.25 21C4.83579 21 4.5 20.6642 4.5 20.25C4.5 19.8358 4.83579 19.5 5.25 19.5C5.66421 19.5 6 19.8358 6 20.25ZM18.75 20.25C18.75 20.6642 18.4142 21 18 21C17.5858 21 17.25 20.6642 17.25 20.25C17.25 19.8358 17.5858 19.5 18 19.5C18.4142 19.5 18.75 19.8358 18.75 20.25Z" stroke="inherit" stroke-width="1.5" stroke-linecap="round" stroke-linejoin="round"/>
</symbol>

<symbol id="icon-filter" viewBox="0 0 18 11" fill="inherit" xmlns="http://www.w3.org/2000/svg">
  <path d="M6 9.75C6 9.55109 6.07902 9.36032 6.21967 9.21967C6.36032 9.07902 6.55109 9 6.75 9H11.25C11.4489 9 11.6397 9.07902 11.7803 9.21967C11.921 9.36032 12 9.55109 12 9.75C12 9.94891 11.921 10.1397 11.7803 10.2803C11.6397 10.421 11.4489 10.5 11.25 10.5H6.75C6.55109 10.5 6.36032 10.421 6.21967 10.2803C6.07902 10.1397 6 9.94891 6 9.75ZM3 5.25C3 5.05109 3.07902 4.86032 3.21967 4.71967C3.36032 4.57902 3.55109 4.5 3.75 4.5H14.25C14.4489 4.5 14.6397 4.57902 14.7803 4.71967C14.921 4.86032 15 5.05109 15 5.25C15 5.44891 14.921 5.63968 14.7803 5.78033C14.6397 5.92098 14.4489 6 14.25 6H3.75C3.55109 6 3.36032 5.92098 3.21967 5.78033C3.07902 5.63968 3 5.44891 3 5.25ZM0 0.75C0 0.551088 0.0790178 0.360322 0.21967 0.21967C0.360322 0.0790178 0.551088 0 0.75 0H17.25C17.4489 0 17.6397 0.0790178 17.7803 0.21967C17.921 0.360322 18 0.551088 18 0.75C18 0.948912 17.921 1.13968 17.7803 1.28033C17.6397 1.42098 17.4489 1.5 17.25 1.5H0.75C0.551088 1.5 0.360322 1.42098 0.21967 1.28033C0.0790178 1.13968 0 0.948912 0 0.75Z" fill="inherit"/>
</symbol>

<symbol id="icon-grid" viewBox="0 0 40 40" fill="inherit" xmlns="http://www.w3.org/2000/svg">
  <path d="M11 12.89C11 11.8462 11.8462 11 12.89 11H16.67C17.7138 11 18.56 11.8462 18.56 12.89V16.67C18.56 17.7138 17.7138 18.56 16.67 18.56H12.89C11.8462 18.56 11 17.7138 11 16.67V12.89Z" fill="inherit"/>
  <path d="M11 23.33C11 22.2862 11.8462 21.44 12.89 21.44H16.67C17.7138 21.44 18.56 22.2862 18.56 23.33V27.11C18.56 28.1538 17.7138 29 16.67 29H12.89C11.8462 29 11 28.1538 11 27.11V23.33Z" fill="inherit"/>
  <path d="M21.44 12.89C21.44 11.8462 22.2862 11 23.33 11H27.11C28.1538 11 29 11.8462 29 12.89V16.67C29 17.7138 28.1538 18.56 27.11 18.56H23.33C22.2862 18.56 21.44 17.7138 21.44 16.67V12.89Z" fill="inherit"/>
  <path d="M21.44 23.33C21.44 22.2862 22.2862 21.44 23.33 21.44H27.11C28.1538 21.44 29 22.2862 29 23.33V27.11C29 28.1538 28.1538 29 27.11 29H23.33C22.2862 29 21.44 28.1538 21.44 27.11V23.33Z" fill="inherit"/>
</symbol>

<symbol id="icon-list" viewBox="0 0 40 40" fill="inherit" xmlns="http://www.w3.org/2000/svg">
  <path d="M11 13.3636C11 12.3894 11.7898 11.5996 12.764 11.5996H13.892C14.8662 11.5996 15.656 12.3894 15.656 13.3636V16.8916C15.656 17.8658 14.8662 18.6556 13.892 18.6556H12.764C11.7898 18.6556 11 17.8658 11 16.8916V13.3636Z" fill="inherit"/>
  <path d="M11 23.1076C11 22.1334 11.7898 21.3436 12.764 21.3436H13.892C14.8662 21.3436 15.656 22.1334 15.656 23.1076V26.6356C15.656 27.6098 14.8662 28.3996 13.892 28.3996H12.764C11.7898 28.3996 11 27.6098 11 26.6356V23.1076Z" fill="inherit"/>
  <path d="M18.344 13.3636C18.344 12.3894 19.1338 11.5996 20.108 11.5996H27.236C28.2102 11.5996 29 12.3894 29 13.3636V16.8916C29 17.8658 28.2102 18.6556 27.236 18.6556H20.108C19.1338 18.6556 18.344 17.8658 18.344 16.8916V13.3636Z" fill="inherit"/>
  <path d="M18.344 23.1076C18.344 22.1334 19.1338 21.3436 20.108 21.3436H27.236C28.2102 21.3436 29 22.1334 29 23.1076V26.6356C29 27.6098 28.2102 28.3996 27.236 28.3996H20.108C19.1338 28.3996 18.344 27.6098 18.344 26.6356V23.1076Z" fill="inherit"/>
</symbol>

<symbol id="icon-compact" viewBox="0 0 40 40" fill="inherit" xmlns="http://www.w3.org/2000/svg">
  <path d="M10.9414 13.7679C10.9414 12.7937 11.7312 12.0039 12.7054 12.0039H27.2018C28.176 12.0039 28.9658 12.7937 28.9658 13.7679V14.2959C28.9658 15.2701 28.176 16.0599 27.2018 16.0599H12.7054C11.7312 16.0599 10.9414 15.2701 10.9414 14.2959V13.7679Z" fill="inherit"/>
  <path d="M11.0336 19.78C11.0336 18.8058 11.8234 18.016 12.7976 18.016H27.294C28.2682 18.016 29.058 18.8058 29.058 19.78V20.308C29.058 21.2822 28.2682 22.072 27.294 22.072H12.7976C11.8234 22.072 11.0336 21.2822 11.0336 20.308V19.78Z" fill="inherit"/>
  <path d="M10.9414 25.7038C10.9414 24.7296 11.7312 23.9398 12.7054 23.9398H27.2018C28.176 23.9398 28.9658 24.7296 28.9658 25.7038V26.2318C28.9658 27.206 28.176 27.9958 27.2018 27.9958H12.7054C11.7312 27.9958 10.9414 27.206 10.9414 26.2318V25.7038Z" fill="inherit"/>
</symbol>

<symbol id="icon-check-mark" viewBox="0 0 11 13" fill="none" xmlns="http://www.w3.org/2000/svg">
  <path d="M1 5.43914L5.0559 11.8122L9.34849 1.18848" stroke="inherit" stroke-width="2" stroke-linecap="round" stroke-linejoin="round"/>
</symbol>

<svg id="icon-check" xmlns="http://www.w3.org/2000/svg" width="18" height="18" viewBox="0 0 18 18" fill="none">
<path d="M3.375 9.5625L7.875 14.0625L14.625 3.9375" stroke="inherit" stroke-width="1.5" stroke-linecap="round" stroke-linejoin="round"/>
</svg>

<symbol id="icon-star" viewBox="0 0 24 25" fill="inherit" xmlns="http://www.w3.org/2000/svg">
  <path d="M12.0003 17.7698L16.1503 20.2798C16.9103 20.7398 17.8403 20.0598 17.6403 19.1998L16.5403 14.4798L20.2103 11.2998C20.8803 10.7198 20.5203 9.61977 19.6403 9.54977L14.8103 9.13977L12.9203 4.67977C12.5803 3.86977 11.4203 3.86977 11.0803 4.67977L9.19032 9.12977L4.36032 9.53977C3.48032 9.60977 3.12032 10.7098 3.79032 11.2898L7.46032 14.4698L6.36032 19.1898C6.16032 20.0498 7.09032 20.7298 7.85032 20.2698L12.0003 17.7698Z" fill="inherit"/>
</symbol>

<svg id="icon-statistics" xmlns="http://www.w3.org/2000/svg" width="32" height="32" viewBox="0 0 32 32" fill="none">
  <path d="M9 27L9 5M16 27L16 16M23 27L23 5" stroke="inherit" stroke-width="2" stroke-linecap="round" stroke-linejoin="round"/>
</svg>

<symbol id="icon-instagram" viewBox="0 0 24 24" fill="inherit" xmlns="http://www.w3.org/2000/svg" xmlns:xlink="http://www.w3.org/1999/xlink">
  <rect width="24" height="24" fill="inherit" stroke="inherit" />
  <defs>
    <pattern id="pattern0" patternContentUnits="objectBoundingBox" width="1" height="1">
      <use xlink:href="#image0_2337_4166" transform="scale(0.00125)"/>
    </pattern>
  </defs>
</symbol>



</svg>